M48
; DRILL file {KiCad 7.0.9} date Tue Sep  3 11:05:09 2024
; FORMAT={-:-/ absolute / metric / decimal}
; #@! TF.CreationDate,2024-09-03T11:05:09+09:00
; #@! TF.GenerationSoftware,Kicad,Pcbnew,7.0.9
; #@! TF.FileFunction,Plated,1,2,PTH
FMAT,2
METRIC
; #@! TA.AperFunction,Plated,PTH,ViaDrill
T1C0.400
; #@! TA.AperFunction,Plated,PTH,ComponentDrill
T2C1.000
; #@! TA.AperFunction,Plated,PTH,ComponentDrill
T3C1.020
%
G90
G05
T1
X89.466Y-110.627
X92.75Y-99.25
X92.75Y-110.58
X93.0Y-102.75
X93.25Y-112.5
X98.0Y-83.25
X98.025Y-82.25
X98.75Y-84.25
X99.459Y-91.45
X99.5Y-82.25
X99.5Y-83.25
X99.959Y-133.7
X100.209Y-105.95
X100.209Y-119.45
X106.0Y-84.25
X108.75Y-140.75
X109.0Y-60.424
X111.0Y-47.0
X113.459Y-77.517
X113.959Y-91.45
X113.959Y-105.95
X113.959Y-119.7
X114.209Y-133.45
X114.5Y-69.5
X116.25Y-48.5
X119.696Y-46.168
X120.25Y-47.0
X121.25Y-84.5
X121.25Y-98.5
X121.25Y-112.5
X121.5Y-70.25
X122.25Y-59.0
X122.25Y-65.75
X122.5Y-52.5
X122.625Y-69.875
X126.959Y-77.2
X127.459Y-119.45
X127.709Y-105.95
X127.959Y-91.2
X128.209Y-133.45
X131.25Y-67.174
X131.75Y-68.724
X134.525Y-70.0
X135.25Y-67.899
X135.25Y-98.5
X135.25Y-112.5
X137.25Y-49.0
X141.459Y-77.2
X141.709Y-91.2
X141.709Y-132.7
X141.75Y-69.25
X141.959Y-119.45
X142.0Y-49.0
X142.709Y-104.2
X145.25Y-59.25
X145.25Y-68.25
X147.25Y-61.724
X149.25Y-98.5
X149.25Y-112.5
X149.309Y-82.75
X151.25Y-73.5
X151.5Y-69.0
X152.225Y-70.25
X154.793Y-71.25
X155.209Y-104.95
X155.459Y-119.45
X155.459Y-133.45
X155.709Y-91.2
X156.137Y-71.863
X161.25Y-83.25
X162.75Y-48.0
X163.309Y-92.25
X163.309Y-105.25
X163.309Y-118.0
X163.5Y-132.0
X163.759Y-84.759
X163.964Y-86.286
X164.651Y-88.75
X164.75Y-87.225
X164.75Y-102.75
X165.25Y-99.25
X165.275Y-131.529
X165.5Y-140.5
X165.75Y-137.0
X165.826Y-102.674
X166.0Y-125.75
X166.25Y-110.25
X166.275Y-104.75
X166.275Y-111.75
X166.725Y-126.75
X166.725Y-118.75
X167.5Y-125.75
X168.225Y-126.75
X169.75Y-84.0
T2
X160.08Y-44.25
X162.62Y-44.25
X165.16Y-44.25
X167.7Y-44.25
T3
X95.62Y-44.36
X95.62Y-62.14
X98.16Y-44.36
X98.16Y-62.14
X100.7Y-44.36
X100.7Y-62.14
X103.24Y-44.36
X103.24Y-62.14
X105.78Y-44.36
X105.78Y-62.14
X108.32Y-44.36
X108.32Y-62.14
X110.86Y-44.36
X110.86Y-62.14
X113.4Y-44.36
X113.4Y-62.14
X115.94Y-44.36
X115.94Y-62.14
X118.48Y-44.36
X118.48Y-62.14
X121.02Y-44.36
X121.02Y-62.14
X123.56Y-44.36
X123.56Y-62.14
X126.1Y-44.36
X126.1Y-62.14
X128.64Y-44.36
X128.64Y-62.14
X131.18Y-44.36
X131.18Y-62.14
X133.72Y-44.36
X133.72Y-62.14
X136.26Y-44.36
X136.26Y-62.14
X138.8Y-44.36
X138.8Y-62.14
X141.34Y-44.36
X141.34Y-62.14
X143.65Y-50.71
X143.65Y-53.25
X143.65Y-55.79
X143.88Y-44.36
X143.88Y-62.14
T0
M30
