%TF.GenerationSoftware,KiCad,Pcbnew,7.0.9*%
%TF.CreationDate,2024-09-03T11:05:06+09:00*%
%TF.ProjectId,_________,d5eac3af-adfc-4dcf-9cc9-2e6b69636164,rev?*%
%TF.SameCoordinates,Original*%
%TF.FileFunction,Legend,Top*%
%TF.FilePolarity,Positive*%
%FSLAX46Y46*%
G04 Gerber Fmt 4.6, Leading zero omitted, Abs format (unit mm)*
G04 Created by KiCad (PCBNEW 7.0.9) date 2024-09-03 11:05:06*
%MOMM*%
%LPD*%
G01*
G04 APERTURE LIST*
%ADD10C,0.100000*%
%ADD11C,0.150000*%
%ADD12C,0.120000*%
G04 APERTURE END LIST*
D10*
X155170957Y-120807419D02*
X155170957Y-121616942D01*
X155170957Y-121616942D02*
X155218576Y-121712180D01*
X155218576Y-121712180D02*
X155266195Y-121759800D01*
X155266195Y-121759800D02*
X155361433Y-121807419D01*
X155361433Y-121807419D02*
X155551909Y-121807419D01*
X155551909Y-121807419D02*
X155647147Y-121759800D01*
X155647147Y-121759800D02*
X155694766Y-121712180D01*
X155694766Y-121712180D02*
X155742385Y-121616942D01*
X155742385Y-121616942D02*
X155742385Y-120807419D01*
X156123338Y-120807419D02*
X156742385Y-120807419D01*
X156742385Y-120807419D02*
X156409052Y-121188371D01*
X156409052Y-121188371D02*
X156551909Y-121188371D01*
X156551909Y-121188371D02*
X156647147Y-121235990D01*
X156647147Y-121235990D02*
X156694766Y-121283609D01*
X156694766Y-121283609D02*
X156742385Y-121378847D01*
X156742385Y-121378847D02*
X156742385Y-121616942D01*
X156742385Y-121616942D02*
X156694766Y-121712180D01*
X156694766Y-121712180D02*
X156647147Y-121759800D01*
X156647147Y-121759800D02*
X156551909Y-121807419D01*
X156551909Y-121807419D02*
X156266195Y-121807419D01*
X156266195Y-121807419D02*
X156170957Y-121759800D01*
X156170957Y-121759800D02*
X156123338Y-121712180D01*
X157599528Y-120807419D02*
X157409052Y-120807419D01*
X157409052Y-120807419D02*
X157313814Y-120855038D01*
X157313814Y-120855038D02*
X157266195Y-120902657D01*
X157266195Y-120902657D02*
X157170957Y-121045514D01*
X157170957Y-121045514D02*
X157123338Y-121235990D01*
X157123338Y-121235990D02*
X157123338Y-121616942D01*
X157123338Y-121616942D02*
X157170957Y-121712180D01*
X157170957Y-121712180D02*
X157218576Y-121759800D01*
X157218576Y-121759800D02*
X157313814Y-121807419D01*
X157313814Y-121807419D02*
X157504290Y-121807419D01*
X157504290Y-121807419D02*
X157599528Y-121759800D01*
X157599528Y-121759800D02*
X157647147Y-121712180D01*
X157647147Y-121712180D02*
X157694766Y-121616942D01*
X157694766Y-121616942D02*
X157694766Y-121378847D01*
X157694766Y-121378847D02*
X157647147Y-121283609D01*
X157647147Y-121283609D02*
X157599528Y-121235990D01*
X157599528Y-121235990D02*
X157504290Y-121188371D01*
X157504290Y-121188371D02*
X157313814Y-121188371D01*
X157313814Y-121188371D02*
X157218576Y-121235990D01*
X157218576Y-121235990D02*
X157170957Y-121283609D01*
X157170957Y-121283609D02*
X157123338Y-121378847D01*
X101511419Y-124475594D02*
X102320942Y-124475594D01*
X102320942Y-124475594D02*
X102416180Y-124427975D01*
X102416180Y-124427975D02*
X102463800Y-124380356D01*
X102463800Y-124380356D02*
X102511419Y-124285118D01*
X102511419Y-124285118D02*
X102511419Y-124094642D01*
X102511419Y-124094642D02*
X102463800Y-123999404D01*
X102463800Y-123999404D02*
X102416180Y-123951785D01*
X102416180Y-123951785D02*
X102320942Y-123904166D01*
X102320942Y-123904166D02*
X101511419Y-123904166D01*
X101511419Y-123523213D02*
X101511419Y-122904166D01*
X101511419Y-122904166D02*
X101892371Y-123237499D01*
X101892371Y-123237499D02*
X101892371Y-123094642D01*
X101892371Y-123094642D02*
X101939990Y-122999404D01*
X101939990Y-122999404D02*
X101987609Y-122951785D01*
X101987609Y-122951785D02*
X102082847Y-122904166D01*
X102082847Y-122904166D02*
X102320942Y-122904166D01*
X102320942Y-122904166D02*
X102416180Y-122951785D01*
X102416180Y-122951785D02*
X102463800Y-122999404D01*
X102463800Y-122999404D02*
X102511419Y-123094642D01*
X102511419Y-123094642D02*
X102511419Y-123380356D01*
X102511419Y-123380356D02*
X102463800Y-123475594D01*
X102463800Y-123475594D02*
X102416180Y-123523213D01*
X101511419Y-122285118D02*
X101511419Y-122189880D01*
X101511419Y-122189880D02*
X101559038Y-122094642D01*
X101559038Y-122094642D02*
X101606657Y-122047023D01*
X101606657Y-122047023D02*
X101701895Y-121999404D01*
X101701895Y-121999404D02*
X101892371Y-121951785D01*
X101892371Y-121951785D02*
X102130466Y-121951785D01*
X102130466Y-121951785D02*
X102320942Y-121999404D01*
X102320942Y-121999404D02*
X102416180Y-122047023D01*
X102416180Y-122047023D02*
X102463800Y-122094642D01*
X102463800Y-122094642D02*
X102511419Y-122189880D01*
X102511419Y-122189880D02*
X102511419Y-122285118D01*
X102511419Y-122285118D02*
X102463800Y-122380356D01*
X102463800Y-122380356D02*
X102416180Y-122427975D01*
X102416180Y-122427975D02*
X102320942Y-122475594D01*
X102320942Y-122475594D02*
X102130466Y-122523213D01*
X102130466Y-122523213D02*
X101892371Y-122523213D01*
X101892371Y-122523213D02*
X101701895Y-122475594D01*
X101701895Y-122475594D02*
X101606657Y-122427975D01*
X101606657Y-122427975D02*
X101559038Y-122380356D01*
X101559038Y-122380356D02*
X101511419Y-122285118D01*
X127220957Y-64807419D02*
X127220957Y-65616942D01*
X127220957Y-65616942D02*
X127268576Y-65712180D01*
X127268576Y-65712180D02*
X127316195Y-65759800D01*
X127316195Y-65759800D02*
X127411433Y-65807419D01*
X127411433Y-65807419D02*
X127601909Y-65807419D01*
X127601909Y-65807419D02*
X127697147Y-65759800D01*
X127697147Y-65759800D02*
X127744766Y-65712180D01*
X127744766Y-65712180D02*
X127792385Y-65616942D01*
X127792385Y-65616942D02*
X127792385Y-64807419D01*
X128697147Y-65140752D02*
X128697147Y-65807419D01*
X128459052Y-64759800D02*
X128220957Y-65474085D01*
X128220957Y-65474085D02*
X128840004Y-65474085D01*
X129125719Y-64807419D02*
X129792385Y-64807419D01*
X129792385Y-64807419D02*
X129363814Y-65807419D01*
X141170957Y-120807419D02*
X141170957Y-121616942D01*
X141170957Y-121616942D02*
X141218576Y-121712180D01*
X141218576Y-121712180D02*
X141266195Y-121759800D01*
X141266195Y-121759800D02*
X141361433Y-121807419D01*
X141361433Y-121807419D02*
X141551909Y-121807419D01*
X141551909Y-121807419D02*
X141647147Y-121759800D01*
X141647147Y-121759800D02*
X141694766Y-121712180D01*
X141694766Y-121712180D02*
X141742385Y-121616942D01*
X141742385Y-121616942D02*
X141742385Y-120807419D01*
X142123338Y-120807419D02*
X142742385Y-120807419D01*
X142742385Y-120807419D02*
X142409052Y-121188371D01*
X142409052Y-121188371D02*
X142551909Y-121188371D01*
X142551909Y-121188371D02*
X142647147Y-121235990D01*
X142647147Y-121235990D02*
X142694766Y-121283609D01*
X142694766Y-121283609D02*
X142742385Y-121378847D01*
X142742385Y-121378847D02*
X142742385Y-121616942D01*
X142742385Y-121616942D02*
X142694766Y-121712180D01*
X142694766Y-121712180D02*
X142647147Y-121759800D01*
X142647147Y-121759800D02*
X142551909Y-121807419D01*
X142551909Y-121807419D02*
X142266195Y-121807419D01*
X142266195Y-121807419D02*
X142170957Y-121759800D01*
X142170957Y-121759800D02*
X142123338Y-121712180D01*
X143075719Y-120807419D02*
X143742385Y-120807419D01*
X143742385Y-120807419D02*
X143313814Y-121807419D01*
X141170957Y-78807419D02*
X141170957Y-79616942D01*
X141170957Y-79616942D02*
X141218576Y-79712180D01*
X141218576Y-79712180D02*
X141266195Y-79759800D01*
X141266195Y-79759800D02*
X141361433Y-79807419D01*
X141361433Y-79807419D02*
X141551909Y-79807419D01*
X141551909Y-79807419D02*
X141647147Y-79759800D01*
X141647147Y-79759800D02*
X141694766Y-79712180D01*
X141694766Y-79712180D02*
X141742385Y-79616942D01*
X141742385Y-79616942D02*
X141742385Y-78807419D01*
X142170957Y-78902657D02*
X142218576Y-78855038D01*
X142218576Y-78855038D02*
X142313814Y-78807419D01*
X142313814Y-78807419D02*
X142551909Y-78807419D01*
X142551909Y-78807419D02*
X142647147Y-78855038D01*
X142647147Y-78855038D02*
X142694766Y-78902657D01*
X142694766Y-78902657D02*
X142742385Y-78997895D01*
X142742385Y-78997895D02*
X142742385Y-79093133D01*
X142742385Y-79093133D02*
X142694766Y-79235990D01*
X142694766Y-79235990D02*
X142123338Y-79807419D01*
X142123338Y-79807419D02*
X142742385Y-79807419D01*
X143075719Y-78807419D02*
X143694766Y-78807419D01*
X143694766Y-78807419D02*
X143361433Y-79188371D01*
X143361433Y-79188371D02*
X143504290Y-79188371D01*
X143504290Y-79188371D02*
X143599528Y-79235990D01*
X143599528Y-79235990D02*
X143647147Y-79283609D01*
X143647147Y-79283609D02*
X143694766Y-79378847D01*
X143694766Y-79378847D02*
X143694766Y-79616942D01*
X143694766Y-79616942D02*
X143647147Y-79712180D01*
X143647147Y-79712180D02*
X143599528Y-79759800D01*
X143599528Y-79759800D02*
X143504290Y-79807419D01*
X143504290Y-79807419D02*
X143218576Y-79807419D01*
X143218576Y-79807419D02*
X143123338Y-79759800D01*
X143123338Y-79759800D02*
X143075719Y-79712180D01*
X127170957Y-78807419D02*
X127170957Y-79616942D01*
X127170957Y-79616942D02*
X127218576Y-79712180D01*
X127218576Y-79712180D02*
X127266195Y-79759800D01*
X127266195Y-79759800D02*
X127361433Y-79807419D01*
X127361433Y-79807419D02*
X127551909Y-79807419D01*
X127551909Y-79807419D02*
X127647147Y-79759800D01*
X127647147Y-79759800D02*
X127694766Y-79712180D01*
X127694766Y-79712180D02*
X127742385Y-79616942D01*
X127742385Y-79616942D02*
X127742385Y-78807419D01*
X128170957Y-78902657D02*
X128218576Y-78855038D01*
X128218576Y-78855038D02*
X128313814Y-78807419D01*
X128313814Y-78807419D02*
X128551909Y-78807419D01*
X128551909Y-78807419D02*
X128647147Y-78855038D01*
X128647147Y-78855038D02*
X128694766Y-78902657D01*
X128694766Y-78902657D02*
X128742385Y-78997895D01*
X128742385Y-78997895D02*
X128742385Y-79093133D01*
X128742385Y-79093133D02*
X128694766Y-79235990D01*
X128694766Y-79235990D02*
X128123338Y-79807419D01*
X128123338Y-79807419D02*
X128742385Y-79807419D01*
X129123338Y-78902657D02*
X129170957Y-78855038D01*
X129170957Y-78855038D02*
X129266195Y-78807419D01*
X129266195Y-78807419D02*
X129504290Y-78807419D01*
X129504290Y-78807419D02*
X129599528Y-78855038D01*
X129599528Y-78855038D02*
X129647147Y-78902657D01*
X129647147Y-78902657D02*
X129694766Y-78997895D01*
X129694766Y-78997895D02*
X129694766Y-79093133D01*
X129694766Y-79093133D02*
X129647147Y-79235990D01*
X129647147Y-79235990D02*
X129075719Y-79807419D01*
X129075719Y-79807419D02*
X129694766Y-79807419D01*
X113170957Y-78807419D02*
X113170957Y-79616942D01*
X113170957Y-79616942D02*
X113218576Y-79712180D01*
X113218576Y-79712180D02*
X113266195Y-79759800D01*
X113266195Y-79759800D02*
X113361433Y-79807419D01*
X113361433Y-79807419D02*
X113551909Y-79807419D01*
X113551909Y-79807419D02*
X113647147Y-79759800D01*
X113647147Y-79759800D02*
X113694766Y-79712180D01*
X113694766Y-79712180D02*
X113742385Y-79616942D01*
X113742385Y-79616942D02*
X113742385Y-78807419D01*
X114170957Y-78902657D02*
X114218576Y-78855038D01*
X114218576Y-78855038D02*
X114313814Y-78807419D01*
X114313814Y-78807419D02*
X114551909Y-78807419D01*
X114551909Y-78807419D02*
X114647147Y-78855038D01*
X114647147Y-78855038D02*
X114694766Y-78902657D01*
X114694766Y-78902657D02*
X114742385Y-78997895D01*
X114742385Y-78997895D02*
X114742385Y-79093133D01*
X114742385Y-79093133D02*
X114694766Y-79235990D01*
X114694766Y-79235990D02*
X114123338Y-79807419D01*
X114123338Y-79807419D02*
X114742385Y-79807419D01*
X115694766Y-79807419D02*
X115123338Y-79807419D01*
X115409052Y-79807419D02*
X115409052Y-78807419D01*
X115409052Y-78807419D02*
X115313814Y-78950276D01*
X115313814Y-78950276D02*
X115218576Y-79045514D01*
X115218576Y-79045514D02*
X115123338Y-79093133D01*
X155170957Y-92807419D02*
X155170957Y-93616942D01*
X155170957Y-93616942D02*
X155218576Y-93712180D01*
X155218576Y-93712180D02*
X155266195Y-93759800D01*
X155266195Y-93759800D02*
X155361433Y-93807419D01*
X155361433Y-93807419D02*
X155551909Y-93807419D01*
X155551909Y-93807419D02*
X155647147Y-93759800D01*
X155647147Y-93759800D02*
X155694766Y-93712180D01*
X155694766Y-93712180D02*
X155742385Y-93616942D01*
X155742385Y-93616942D02*
X155742385Y-92807419D01*
X156742385Y-93807419D02*
X156170957Y-93807419D01*
X156456671Y-93807419D02*
X156456671Y-92807419D01*
X156456671Y-92807419D02*
X156361433Y-92950276D01*
X156361433Y-92950276D02*
X156266195Y-93045514D01*
X156266195Y-93045514D02*
X156170957Y-93093133D01*
X157075719Y-92807419D02*
X157694766Y-92807419D01*
X157694766Y-92807419D02*
X157361433Y-93188371D01*
X157361433Y-93188371D02*
X157504290Y-93188371D01*
X157504290Y-93188371D02*
X157599528Y-93235990D01*
X157599528Y-93235990D02*
X157647147Y-93283609D01*
X157647147Y-93283609D02*
X157694766Y-93378847D01*
X157694766Y-93378847D02*
X157694766Y-93616942D01*
X157694766Y-93616942D02*
X157647147Y-93712180D01*
X157647147Y-93712180D02*
X157599528Y-93759800D01*
X157599528Y-93759800D02*
X157504290Y-93807419D01*
X157504290Y-93807419D02*
X157218576Y-93807419D01*
X157218576Y-93807419D02*
X157123338Y-93759800D01*
X157123338Y-93759800D02*
X157075719Y-93712180D01*
X99170957Y-78807419D02*
X99170957Y-79616942D01*
X99170957Y-79616942D02*
X99218576Y-79712180D01*
X99218576Y-79712180D02*
X99266195Y-79759800D01*
X99266195Y-79759800D02*
X99361433Y-79807419D01*
X99361433Y-79807419D02*
X99551909Y-79807419D01*
X99551909Y-79807419D02*
X99647147Y-79759800D01*
X99647147Y-79759800D02*
X99694766Y-79712180D01*
X99694766Y-79712180D02*
X99742385Y-79616942D01*
X99742385Y-79616942D02*
X99742385Y-78807419D01*
X100170957Y-78902657D02*
X100218576Y-78855038D01*
X100218576Y-78855038D02*
X100313814Y-78807419D01*
X100313814Y-78807419D02*
X100551909Y-78807419D01*
X100551909Y-78807419D02*
X100647147Y-78855038D01*
X100647147Y-78855038D02*
X100694766Y-78902657D01*
X100694766Y-78902657D02*
X100742385Y-78997895D01*
X100742385Y-78997895D02*
X100742385Y-79093133D01*
X100742385Y-79093133D02*
X100694766Y-79235990D01*
X100694766Y-79235990D02*
X100123338Y-79807419D01*
X100123338Y-79807419D02*
X100742385Y-79807419D01*
X101361433Y-78807419D02*
X101456671Y-78807419D01*
X101456671Y-78807419D02*
X101551909Y-78855038D01*
X101551909Y-78855038D02*
X101599528Y-78902657D01*
X101599528Y-78902657D02*
X101647147Y-78997895D01*
X101647147Y-78997895D02*
X101694766Y-79188371D01*
X101694766Y-79188371D02*
X101694766Y-79426466D01*
X101694766Y-79426466D02*
X101647147Y-79616942D01*
X101647147Y-79616942D02*
X101599528Y-79712180D01*
X101599528Y-79712180D02*
X101551909Y-79759800D01*
X101551909Y-79759800D02*
X101456671Y-79807419D01*
X101456671Y-79807419D02*
X101361433Y-79807419D01*
X101361433Y-79807419D02*
X101266195Y-79759800D01*
X101266195Y-79759800D02*
X101218576Y-79712180D01*
X101218576Y-79712180D02*
X101170957Y-79616942D01*
X101170957Y-79616942D02*
X101123338Y-79426466D01*
X101123338Y-79426466D02*
X101123338Y-79188371D01*
X101123338Y-79188371D02*
X101170957Y-78997895D01*
X101170957Y-78997895D02*
X101218576Y-78902657D01*
X101218576Y-78902657D02*
X101266195Y-78855038D01*
X101266195Y-78855038D02*
X101361433Y-78807419D01*
X127170957Y-120807419D02*
X127170957Y-121616942D01*
X127170957Y-121616942D02*
X127218576Y-121712180D01*
X127218576Y-121712180D02*
X127266195Y-121759800D01*
X127266195Y-121759800D02*
X127361433Y-121807419D01*
X127361433Y-121807419D02*
X127551909Y-121807419D01*
X127551909Y-121807419D02*
X127647147Y-121759800D01*
X127647147Y-121759800D02*
X127694766Y-121712180D01*
X127694766Y-121712180D02*
X127742385Y-121616942D01*
X127742385Y-121616942D02*
X127742385Y-120807419D01*
X128123338Y-120807419D02*
X128742385Y-120807419D01*
X128742385Y-120807419D02*
X128409052Y-121188371D01*
X128409052Y-121188371D02*
X128551909Y-121188371D01*
X128551909Y-121188371D02*
X128647147Y-121235990D01*
X128647147Y-121235990D02*
X128694766Y-121283609D01*
X128694766Y-121283609D02*
X128742385Y-121378847D01*
X128742385Y-121378847D02*
X128742385Y-121616942D01*
X128742385Y-121616942D02*
X128694766Y-121712180D01*
X128694766Y-121712180D02*
X128647147Y-121759800D01*
X128647147Y-121759800D02*
X128551909Y-121807419D01*
X128551909Y-121807419D02*
X128266195Y-121807419D01*
X128266195Y-121807419D02*
X128170957Y-121759800D01*
X128170957Y-121759800D02*
X128123338Y-121712180D01*
X129313814Y-121235990D02*
X129218576Y-121188371D01*
X129218576Y-121188371D02*
X129170957Y-121140752D01*
X129170957Y-121140752D02*
X129123338Y-121045514D01*
X129123338Y-121045514D02*
X129123338Y-120997895D01*
X129123338Y-120997895D02*
X129170957Y-120902657D01*
X129170957Y-120902657D02*
X129218576Y-120855038D01*
X129218576Y-120855038D02*
X129313814Y-120807419D01*
X129313814Y-120807419D02*
X129504290Y-120807419D01*
X129504290Y-120807419D02*
X129599528Y-120855038D01*
X129599528Y-120855038D02*
X129647147Y-120902657D01*
X129647147Y-120902657D02*
X129694766Y-120997895D01*
X129694766Y-120997895D02*
X129694766Y-121045514D01*
X129694766Y-121045514D02*
X129647147Y-121140752D01*
X129647147Y-121140752D02*
X129599528Y-121188371D01*
X129599528Y-121188371D02*
X129504290Y-121235990D01*
X129504290Y-121235990D02*
X129313814Y-121235990D01*
X129313814Y-121235990D02*
X129218576Y-121283609D01*
X129218576Y-121283609D02*
X129170957Y-121331228D01*
X129170957Y-121331228D02*
X129123338Y-121426466D01*
X129123338Y-121426466D02*
X129123338Y-121616942D01*
X129123338Y-121616942D02*
X129170957Y-121712180D01*
X129170957Y-121712180D02*
X129218576Y-121759800D01*
X129218576Y-121759800D02*
X129313814Y-121807419D01*
X129313814Y-121807419D02*
X129504290Y-121807419D01*
X129504290Y-121807419D02*
X129599528Y-121759800D01*
X129599528Y-121759800D02*
X129647147Y-121712180D01*
X129647147Y-121712180D02*
X129694766Y-121616942D01*
X129694766Y-121616942D02*
X129694766Y-121426466D01*
X129694766Y-121426466D02*
X129647147Y-121331228D01*
X129647147Y-121331228D02*
X129599528Y-121283609D01*
X129599528Y-121283609D02*
X129504290Y-121235990D01*
D11*
X119204819Y-54011904D02*
X120014342Y-54011904D01*
X120014342Y-54011904D02*
X120109580Y-53964285D01*
X120109580Y-53964285D02*
X120157200Y-53916666D01*
X120157200Y-53916666D02*
X120204819Y-53821428D01*
X120204819Y-53821428D02*
X120204819Y-53630952D01*
X120204819Y-53630952D02*
X120157200Y-53535714D01*
X120157200Y-53535714D02*
X120109580Y-53488095D01*
X120109580Y-53488095D02*
X120014342Y-53440476D01*
X120014342Y-53440476D02*
X119204819Y-53440476D01*
X120204819Y-52440476D02*
X120204819Y-53011904D01*
X120204819Y-52726190D02*
X119204819Y-52726190D01*
X119204819Y-52726190D02*
X119347676Y-52821428D01*
X119347676Y-52821428D02*
X119442914Y-52916666D01*
X119442914Y-52916666D02*
X119490533Y-53011904D01*
X135869131Y-65347998D02*
X135842194Y-65267185D01*
X135842194Y-65267185D02*
X135761381Y-65186373D01*
X135761381Y-65186373D02*
X135653632Y-65132498D01*
X135653632Y-65132498D02*
X135545882Y-65132498D01*
X135545882Y-65132498D02*
X135465070Y-65159436D01*
X135465070Y-65159436D02*
X135330383Y-65240248D01*
X135330383Y-65240248D02*
X135249571Y-65321060D01*
X135249571Y-65321060D02*
X135168758Y-65455747D01*
X135168758Y-65455747D02*
X135141821Y-65536560D01*
X135141821Y-65536560D02*
X135141821Y-65644309D01*
X135141821Y-65644309D02*
X135195696Y-65752059D01*
X135195696Y-65752059D02*
X135249571Y-65805934D01*
X135249571Y-65805934D02*
X135357320Y-65859808D01*
X135357320Y-65859808D02*
X135411195Y-65859808D01*
X135411195Y-65859808D02*
X135599757Y-65671247D01*
X135599757Y-65671247D02*
X135492007Y-65563497D01*
X135599757Y-66156120D02*
X136165442Y-65590434D01*
X136165442Y-65590434D02*
X136380942Y-65805934D01*
X136380942Y-65805934D02*
X136407879Y-65886746D01*
X136407879Y-65886746D02*
X136407879Y-65940621D01*
X136407879Y-65940621D02*
X136380942Y-66021433D01*
X136380942Y-66021433D02*
X136300129Y-66102245D01*
X136300129Y-66102245D02*
X136219317Y-66129182D01*
X136219317Y-66129182D02*
X136165442Y-66129182D01*
X136165442Y-66129182D02*
X136084630Y-66102245D01*
X136084630Y-66102245D02*
X135869131Y-65886746D01*
X136461754Y-67018117D02*
X136138505Y-66694868D01*
X136300129Y-66856492D02*
X136865815Y-66290807D01*
X136865815Y-66290807D02*
X136731128Y-66317744D01*
X136731128Y-66317744D02*
X136623378Y-66317744D01*
X136623378Y-66317744D02*
X136542566Y-66290807D01*
X137216001Y-66640993D02*
X137566187Y-66991179D01*
X137566187Y-66991179D02*
X137162126Y-67018117D01*
X137162126Y-67018117D02*
X137242939Y-67098929D01*
X137242939Y-67098929D02*
X137269876Y-67179741D01*
X137269876Y-67179741D02*
X137269876Y-67233616D01*
X137269876Y-67233616D02*
X137242939Y-67314428D01*
X137242939Y-67314428D02*
X137108252Y-67449115D01*
X137108252Y-67449115D02*
X137027439Y-67476053D01*
X137027439Y-67476053D02*
X136973565Y-67476053D01*
X136973565Y-67476053D02*
X136892752Y-67449115D01*
X136892752Y-67449115D02*
X136731128Y-67287491D01*
X136731128Y-67287491D02*
X136704191Y-67206679D01*
X136704191Y-67206679D02*
X136704191Y-67152804D01*
X138651568Y-65336435D02*
X138624631Y-65255623D01*
X138624631Y-65255623D02*
X138543819Y-65174811D01*
X138543819Y-65174811D02*
X138436069Y-65120936D01*
X138436069Y-65120936D02*
X138328319Y-65120936D01*
X138328319Y-65120936D02*
X138247507Y-65147873D01*
X138247507Y-65147873D02*
X138112820Y-65228685D01*
X138112820Y-65228685D02*
X138032008Y-65309498D01*
X138032008Y-65309498D02*
X137951196Y-65444185D01*
X137951196Y-65444185D02*
X137924258Y-65524997D01*
X137924258Y-65524997D02*
X137924258Y-65632746D01*
X137924258Y-65632746D02*
X137978133Y-65740496D01*
X137978133Y-65740496D02*
X138032008Y-65794371D01*
X138032008Y-65794371D02*
X138139758Y-65848246D01*
X138139758Y-65848246D02*
X138193632Y-65848246D01*
X138193632Y-65848246D02*
X138382194Y-65659684D01*
X138382194Y-65659684D02*
X138274445Y-65551934D01*
X138382194Y-66144557D02*
X138947880Y-65578872D01*
X138947880Y-65578872D02*
X138705443Y-66467806D01*
X138705443Y-66467806D02*
X139271128Y-65902120D01*
X138974817Y-66737180D02*
X139540502Y-66171494D01*
X139540502Y-66171494D02*
X139675189Y-66306181D01*
X139675189Y-66306181D02*
X139729064Y-66413931D01*
X139729064Y-66413931D02*
X139729064Y-66521680D01*
X139729064Y-66521680D02*
X139702127Y-66602493D01*
X139702127Y-66602493D02*
X139621314Y-66737180D01*
X139621314Y-66737180D02*
X139540502Y-66817992D01*
X139540502Y-66817992D02*
X139405815Y-66898804D01*
X139405815Y-66898804D02*
X139325003Y-66925741D01*
X139325003Y-66925741D02*
X139217253Y-66925741D01*
X139217253Y-66925741D02*
X139109504Y-66871867D01*
X139109504Y-66871867D02*
X138974817Y-66737180D01*
X95498505Y-65363372D02*
X95471568Y-65282560D01*
X95471568Y-65282560D02*
X95390756Y-65201748D01*
X95390756Y-65201748D02*
X95283006Y-65147873D01*
X95283006Y-65147873D02*
X95175257Y-65147873D01*
X95175257Y-65147873D02*
X95094444Y-65174810D01*
X95094444Y-65174810D02*
X94959757Y-65255623D01*
X94959757Y-65255623D02*
X94878945Y-65336435D01*
X94878945Y-65336435D02*
X94798133Y-65471122D01*
X94798133Y-65471122D02*
X94771196Y-65551934D01*
X94771196Y-65551934D02*
X94771196Y-65659684D01*
X94771196Y-65659684D02*
X94825070Y-65767433D01*
X94825070Y-65767433D02*
X94878945Y-65821308D01*
X94878945Y-65821308D02*
X94986695Y-65875183D01*
X94986695Y-65875183D02*
X95040570Y-65875183D01*
X95040570Y-65875183D02*
X95229131Y-65686621D01*
X95229131Y-65686621D02*
X95121382Y-65578871D01*
X95229131Y-66171494D02*
X95794817Y-65605809D01*
X95794817Y-65605809D02*
X96010316Y-65821308D01*
X96010316Y-65821308D02*
X96037253Y-65902120D01*
X96037253Y-65902120D02*
X96037253Y-65955995D01*
X96037253Y-65955995D02*
X96010316Y-66036807D01*
X96010316Y-66036807D02*
X95929504Y-66117619D01*
X95929504Y-66117619D02*
X95848692Y-66144557D01*
X95848692Y-66144557D02*
X95794817Y-66144557D01*
X95794817Y-66144557D02*
X95714005Y-66117619D01*
X95714005Y-66117619D02*
X95498505Y-65902120D01*
X96468252Y-66279244D02*
X96522127Y-66333119D01*
X96522127Y-66333119D02*
X96549064Y-66413931D01*
X96549064Y-66413931D02*
X96549064Y-66467806D01*
X96549064Y-66467806D02*
X96522127Y-66548618D01*
X96522127Y-66548618D02*
X96441314Y-66683305D01*
X96441314Y-66683305D02*
X96306627Y-66817992D01*
X96306627Y-66817992D02*
X96171940Y-66898804D01*
X96171940Y-66898804D02*
X96091128Y-66925741D01*
X96091128Y-66925741D02*
X96037253Y-66925741D01*
X96037253Y-66925741D02*
X95956441Y-66898804D01*
X95956441Y-66898804D02*
X95902566Y-66844929D01*
X95902566Y-66844929D02*
X95875629Y-66764117D01*
X95875629Y-66764117D02*
X95875629Y-66710242D01*
X95875629Y-66710242D02*
X95902566Y-66629430D01*
X95902566Y-66629430D02*
X95983379Y-66494743D01*
X95983379Y-66494743D02*
X96118066Y-66360056D01*
X96118066Y-66360056D02*
X96252753Y-66279244D01*
X96252753Y-66279244D02*
X96333565Y-66252306D01*
X96333565Y-66252306D02*
X96387440Y-66252306D01*
X96387440Y-66252306D02*
X96468252Y-66279244D01*
X108198505Y-65363372D02*
X108171568Y-65282560D01*
X108171568Y-65282560D02*
X108090756Y-65201748D01*
X108090756Y-65201748D02*
X107983006Y-65147873D01*
X107983006Y-65147873D02*
X107875257Y-65147873D01*
X107875257Y-65147873D02*
X107794444Y-65174810D01*
X107794444Y-65174810D02*
X107659757Y-65255623D01*
X107659757Y-65255623D02*
X107578945Y-65336435D01*
X107578945Y-65336435D02*
X107498133Y-65471122D01*
X107498133Y-65471122D02*
X107471196Y-65551934D01*
X107471196Y-65551934D02*
X107471196Y-65659684D01*
X107471196Y-65659684D02*
X107525070Y-65767433D01*
X107525070Y-65767433D02*
X107578945Y-65821308D01*
X107578945Y-65821308D02*
X107686695Y-65875183D01*
X107686695Y-65875183D02*
X107740570Y-65875183D01*
X107740570Y-65875183D02*
X107929131Y-65686621D01*
X107929131Y-65686621D02*
X107821382Y-65578871D01*
X107929131Y-66171494D02*
X108494817Y-65605809D01*
X108494817Y-65605809D02*
X108710316Y-65821308D01*
X108710316Y-65821308D02*
X108737253Y-65902120D01*
X108737253Y-65902120D02*
X108737253Y-65955995D01*
X108737253Y-65955995D02*
X108710316Y-66036807D01*
X108710316Y-66036807D02*
X108629504Y-66117619D01*
X108629504Y-66117619D02*
X108548692Y-66144557D01*
X108548692Y-66144557D02*
X108494817Y-66144557D01*
X108494817Y-66144557D02*
X108414005Y-66117619D01*
X108414005Y-66117619D02*
X108198505Y-65902120D01*
X109114377Y-66602493D02*
X108737253Y-66979616D01*
X109195189Y-66252306D02*
X108656441Y-66521680D01*
X108656441Y-66521680D02*
X109006627Y-66871867D01*
X133329131Y-65493998D02*
X133302194Y-65413185D01*
X133302194Y-65413185D02*
X133221381Y-65332373D01*
X133221381Y-65332373D02*
X133113632Y-65278498D01*
X133113632Y-65278498D02*
X133005882Y-65278498D01*
X133005882Y-65278498D02*
X132925070Y-65305436D01*
X132925070Y-65305436D02*
X132790383Y-65386248D01*
X132790383Y-65386248D02*
X132709571Y-65467060D01*
X132709571Y-65467060D02*
X132628758Y-65601747D01*
X132628758Y-65601747D02*
X132601821Y-65682560D01*
X132601821Y-65682560D02*
X132601821Y-65790309D01*
X132601821Y-65790309D02*
X132655696Y-65898059D01*
X132655696Y-65898059D02*
X132709571Y-65951934D01*
X132709571Y-65951934D02*
X132817320Y-66005808D01*
X132817320Y-66005808D02*
X132871195Y-66005808D01*
X132871195Y-66005808D02*
X133059757Y-65817247D01*
X133059757Y-65817247D02*
X132952007Y-65709497D01*
X133059757Y-66302120D02*
X133625442Y-65736434D01*
X133625442Y-65736434D02*
X133840942Y-65951934D01*
X133840942Y-65951934D02*
X133867879Y-66032746D01*
X133867879Y-66032746D02*
X133867879Y-66086621D01*
X133867879Y-66086621D02*
X133840942Y-66167433D01*
X133840942Y-66167433D02*
X133760129Y-66248245D01*
X133760129Y-66248245D02*
X133679317Y-66275182D01*
X133679317Y-66275182D02*
X133625442Y-66275182D01*
X133625442Y-66275182D02*
X133544630Y-66248245D01*
X133544630Y-66248245D02*
X133329131Y-66032746D01*
X133921754Y-67164117D02*
X133598505Y-66840868D01*
X133760129Y-67002492D02*
X134325815Y-66436807D01*
X134325815Y-66436807D02*
X134191128Y-66463744D01*
X134191128Y-66463744D02*
X134083378Y-66463744D01*
X134083378Y-66463744D02*
X134002566Y-66436807D01*
X134649064Y-66867805D02*
X134702939Y-66867805D01*
X134702939Y-66867805D02*
X134783751Y-66894743D01*
X134783751Y-66894743D02*
X134918438Y-67029430D01*
X134918438Y-67029430D02*
X134945375Y-67110242D01*
X134945375Y-67110242D02*
X134945375Y-67164117D01*
X134945375Y-67164117D02*
X134918438Y-67244929D01*
X134918438Y-67244929D02*
X134864563Y-67298804D01*
X134864563Y-67298804D02*
X134756813Y-67352679D01*
X134756813Y-67352679D02*
X134110316Y-67352679D01*
X134110316Y-67352679D02*
X134460502Y-67702865D01*
X100551568Y-65336435D02*
X100524631Y-65255623D01*
X100524631Y-65255623D02*
X100443819Y-65174811D01*
X100443819Y-65174811D02*
X100336069Y-65120936D01*
X100336069Y-65120936D02*
X100228319Y-65120936D01*
X100228319Y-65120936D02*
X100147507Y-65147873D01*
X100147507Y-65147873D02*
X100012820Y-65228685D01*
X100012820Y-65228685D02*
X99932008Y-65309498D01*
X99932008Y-65309498D02*
X99851196Y-65444185D01*
X99851196Y-65444185D02*
X99824258Y-65524997D01*
X99824258Y-65524997D02*
X99824258Y-65632746D01*
X99824258Y-65632746D02*
X99878133Y-65740496D01*
X99878133Y-65740496D02*
X99932008Y-65794371D01*
X99932008Y-65794371D02*
X100039758Y-65848246D01*
X100039758Y-65848246D02*
X100093632Y-65848246D01*
X100093632Y-65848246D02*
X100282194Y-65659684D01*
X100282194Y-65659684D02*
X100174445Y-65551934D01*
X100282194Y-66144557D02*
X100847880Y-65578872D01*
X100847880Y-65578872D02*
X100605443Y-66467806D01*
X100605443Y-66467806D02*
X101171128Y-65902120D01*
X100874817Y-66737180D02*
X101440502Y-66171494D01*
X101440502Y-66171494D02*
X101575189Y-66306181D01*
X101575189Y-66306181D02*
X101629064Y-66413931D01*
X101629064Y-66413931D02*
X101629064Y-66521680D01*
X101629064Y-66521680D02*
X101602127Y-66602493D01*
X101602127Y-66602493D02*
X101521314Y-66737180D01*
X101521314Y-66737180D02*
X101440502Y-66817992D01*
X101440502Y-66817992D02*
X101305815Y-66898804D01*
X101305815Y-66898804D02*
X101225003Y-66925741D01*
X101225003Y-66925741D02*
X101117253Y-66925741D01*
X101117253Y-66925741D02*
X101009504Y-66871867D01*
X101009504Y-66871867D02*
X100874817Y-66737180D01*
X146274200Y-49345238D02*
X146312295Y-49230952D01*
X146312295Y-49230952D02*
X146312295Y-49040476D01*
X146312295Y-49040476D02*
X146274200Y-48964285D01*
X146274200Y-48964285D02*
X146236104Y-48926190D01*
X146236104Y-48926190D02*
X146159914Y-48888095D01*
X146159914Y-48888095D02*
X146083723Y-48888095D01*
X146083723Y-48888095D02*
X146007533Y-48926190D01*
X146007533Y-48926190D02*
X145969438Y-48964285D01*
X145969438Y-48964285D02*
X145931342Y-49040476D01*
X145931342Y-49040476D02*
X145893247Y-49192857D01*
X145893247Y-49192857D02*
X145855152Y-49269047D01*
X145855152Y-49269047D02*
X145817057Y-49307142D01*
X145817057Y-49307142D02*
X145740866Y-49345238D01*
X145740866Y-49345238D02*
X145664676Y-49345238D01*
X145664676Y-49345238D02*
X145588485Y-49307142D01*
X145588485Y-49307142D02*
X145550390Y-49269047D01*
X145550390Y-49269047D02*
X145512295Y-49192857D01*
X145512295Y-49192857D02*
X145512295Y-49002380D01*
X145512295Y-49002380D02*
X145550390Y-48888095D01*
X145512295Y-48621428D02*
X146312295Y-48430952D01*
X146312295Y-48430952D02*
X145740866Y-48278571D01*
X145740866Y-48278571D02*
X146312295Y-48126190D01*
X146312295Y-48126190D02*
X145512295Y-47935714D01*
X146312295Y-47630951D02*
X145512295Y-47630951D01*
X145512295Y-47630951D02*
X145512295Y-47440475D01*
X145512295Y-47440475D02*
X145550390Y-47326189D01*
X145550390Y-47326189D02*
X145626580Y-47249999D01*
X145626580Y-47249999D02*
X145702771Y-47211904D01*
X145702771Y-47211904D02*
X145855152Y-47173808D01*
X145855152Y-47173808D02*
X145969438Y-47173808D01*
X145969438Y-47173808D02*
X146121819Y-47211904D01*
X146121819Y-47211904D02*
X146198009Y-47249999D01*
X146198009Y-47249999D02*
X146274200Y-47326189D01*
X146274200Y-47326189D02*
X146312295Y-47440475D01*
X146312295Y-47440475D02*
X146312295Y-47630951D01*
X146312295Y-46830951D02*
X145512295Y-46830951D01*
X145512295Y-46297618D02*
X145512295Y-46145237D01*
X145512295Y-46145237D02*
X145550390Y-46069047D01*
X145550390Y-46069047D02*
X145626580Y-45992856D01*
X145626580Y-45992856D02*
X145778961Y-45954761D01*
X145778961Y-45954761D02*
X146045628Y-45954761D01*
X146045628Y-45954761D02*
X146198009Y-45992856D01*
X146198009Y-45992856D02*
X146274200Y-46069047D01*
X146274200Y-46069047D02*
X146312295Y-46145237D01*
X146312295Y-46145237D02*
X146312295Y-46297618D01*
X146312295Y-46297618D02*
X146274200Y-46373809D01*
X146274200Y-46373809D02*
X146198009Y-46449999D01*
X146198009Y-46449999D02*
X146045628Y-46488095D01*
X146045628Y-46488095D02*
X145778961Y-46488095D01*
X145778961Y-46488095D02*
X145626580Y-46449999D01*
X145626580Y-46449999D02*
X145550390Y-46373809D01*
X145550390Y-46373809D02*
X145512295Y-46297618D01*
X128249131Y-65347998D02*
X128222194Y-65267185D01*
X128222194Y-65267185D02*
X128141381Y-65186373D01*
X128141381Y-65186373D02*
X128033632Y-65132498D01*
X128033632Y-65132498D02*
X127925882Y-65132498D01*
X127925882Y-65132498D02*
X127845070Y-65159436D01*
X127845070Y-65159436D02*
X127710383Y-65240248D01*
X127710383Y-65240248D02*
X127629571Y-65321060D01*
X127629571Y-65321060D02*
X127548758Y-65455747D01*
X127548758Y-65455747D02*
X127521821Y-65536560D01*
X127521821Y-65536560D02*
X127521821Y-65644309D01*
X127521821Y-65644309D02*
X127575696Y-65752059D01*
X127575696Y-65752059D02*
X127629571Y-65805934D01*
X127629571Y-65805934D02*
X127737320Y-65859808D01*
X127737320Y-65859808D02*
X127791195Y-65859808D01*
X127791195Y-65859808D02*
X127979757Y-65671247D01*
X127979757Y-65671247D02*
X127872007Y-65563497D01*
X127979757Y-66156120D02*
X128545442Y-65590434D01*
X128545442Y-65590434D02*
X128760942Y-65805934D01*
X128760942Y-65805934D02*
X128787879Y-65886746D01*
X128787879Y-65886746D02*
X128787879Y-65940621D01*
X128787879Y-65940621D02*
X128760942Y-66021433D01*
X128760942Y-66021433D02*
X128680129Y-66102245D01*
X128680129Y-66102245D02*
X128599317Y-66129182D01*
X128599317Y-66129182D02*
X128545442Y-66129182D01*
X128545442Y-66129182D02*
X128464630Y-66102245D01*
X128464630Y-66102245D02*
X128249131Y-65886746D01*
X128841754Y-67018117D02*
X128518505Y-66694868D01*
X128680129Y-66856492D02*
X129245815Y-66290807D01*
X129245815Y-66290807D02*
X129111128Y-66317744D01*
X129111128Y-66317744D02*
X129003378Y-66317744D01*
X129003378Y-66317744D02*
X128922566Y-66290807D01*
X129757626Y-66802618D02*
X129811500Y-66856492D01*
X129811500Y-66856492D02*
X129838438Y-66937305D01*
X129838438Y-66937305D02*
X129838438Y-66991179D01*
X129838438Y-66991179D02*
X129811500Y-67071992D01*
X129811500Y-67071992D02*
X129730688Y-67206679D01*
X129730688Y-67206679D02*
X129596001Y-67341366D01*
X129596001Y-67341366D02*
X129461314Y-67422178D01*
X129461314Y-67422178D02*
X129380502Y-67449115D01*
X129380502Y-67449115D02*
X129326627Y-67449115D01*
X129326627Y-67449115D02*
X129245815Y-67422178D01*
X129245815Y-67422178D02*
X129191940Y-67368303D01*
X129191940Y-67368303D02*
X129165003Y-67287491D01*
X129165003Y-67287491D02*
X129165003Y-67233616D01*
X129165003Y-67233616D02*
X129191940Y-67152804D01*
X129191940Y-67152804D02*
X129272752Y-67018117D01*
X129272752Y-67018117D02*
X129407439Y-66883430D01*
X129407439Y-66883430D02*
X129542126Y-66802618D01*
X129542126Y-66802618D02*
X129622939Y-66775680D01*
X129622939Y-66775680D02*
X129676813Y-66775680D01*
X129676813Y-66775680D02*
X129757626Y-66802618D01*
X98028505Y-65463372D02*
X98001568Y-65382560D01*
X98001568Y-65382560D02*
X97920756Y-65301748D01*
X97920756Y-65301748D02*
X97813006Y-65247873D01*
X97813006Y-65247873D02*
X97705257Y-65247873D01*
X97705257Y-65247873D02*
X97624444Y-65274810D01*
X97624444Y-65274810D02*
X97489757Y-65355623D01*
X97489757Y-65355623D02*
X97408945Y-65436435D01*
X97408945Y-65436435D02*
X97328133Y-65571122D01*
X97328133Y-65571122D02*
X97301196Y-65651934D01*
X97301196Y-65651934D02*
X97301196Y-65759684D01*
X97301196Y-65759684D02*
X97355070Y-65867433D01*
X97355070Y-65867433D02*
X97408945Y-65921308D01*
X97408945Y-65921308D02*
X97516695Y-65975183D01*
X97516695Y-65975183D02*
X97570570Y-65975183D01*
X97570570Y-65975183D02*
X97759131Y-65786621D01*
X97759131Y-65786621D02*
X97651382Y-65678871D01*
X97759131Y-66271494D02*
X98324817Y-65705809D01*
X98324817Y-65705809D02*
X98540316Y-65921308D01*
X98540316Y-65921308D02*
X98567253Y-66002120D01*
X98567253Y-66002120D02*
X98567253Y-66055995D01*
X98567253Y-66055995D02*
X98540316Y-66136807D01*
X98540316Y-66136807D02*
X98459504Y-66217619D01*
X98459504Y-66217619D02*
X98378692Y-66244557D01*
X98378692Y-66244557D02*
X98324817Y-66244557D01*
X98324817Y-66244557D02*
X98244005Y-66217619D01*
X98244005Y-66217619D02*
X98028505Y-66002120D01*
X98621128Y-67133491D02*
X98297879Y-66810242D01*
X98459504Y-66971867D02*
X99025189Y-66406181D01*
X99025189Y-66406181D02*
X98890502Y-66433119D01*
X98890502Y-66433119D02*
X98782753Y-66433119D01*
X98782753Y-66433119D02*
X98701940Y-66406181D01*
X130789131Y-65493998D02*
X130762194Y-65413185D01*
X130762194Y-65413185D02*
X130681381Y-65332373D01*
X130681381Y-65332373D02*
X130573632Y-65278498D01*
X130573632Y-65278498D02*
X130465882Y-65278498D01*
X130465882Y-65278498D02*
X130385070Y-65305436D01*
X130385070Y-65305436D02*
X130250383Y-65386248D01*
X130250383Y-65386248D02*
X130169571Y-65467060D01*
X130169571Y-65467060D02*
X130088758Y-65601747D01*
X130088758Y-65601747D02*
X130061821Y-65682560D01*
X130061821Y-65682560D02*
X130061821Y-65790309D01*
X130061821Y-65790309D02*
X130115696Y-65898059D01*
X130115696Y-65898059D02*
X130169571Y-65951934D01*
X130169571Y-65951934D02*
X130277320Y-66005808D01*
X130277320Y-66005808D02*
X130331195Y-66005808D01*
X130331195Y-66005808D02*
X130519757Y-65817247D01*
X130519757Y-65817247D02*
X130412007Y-65709497D01*
X130519757Y-66302120D02*
X131085442Y-65736434D01*
X131085442Y-65736434D02*
X131300942Y-65951934D01*
X131300942Y-65951934D02*
X131327879Y-66032746D01*
X131327879Y-66032746D02*
X131327879Y-66086621D01*
X131327879Y-66086621D02*
X131300942Y-66167433D01*
X131300942Y-66167433D02*
X131220129Y-66248245D01*
X131220129Y-66248245D02*
X131139317Y-66275182D01*
X131139317Y-66275182D02*
X131085442Y-66275182D01*
X131085442Y-66275182D02*
X131004630Y-66248245D01*
X131004630Y-66248245D02*
X130789131Y-66032746D01*
X131381754Y-67164117D02*
X131058505Y-66840868D01*
X131220129Y-67002492D02*
X131785815Y-66436807D01*
X131785815Y-66436807D02*
X131651128Y-66463744D01*
X131651128Y-66463744D02*
X131543378Y-66463744D01*
X131543378Y-66463744D02*
X131462566Y-66436807D01*
X131920502Y-67702865D02*
X131597253Y-67379616D01*
X131758878Y-67541240D02*
X132324563Y-66975555D01*
X132324563Y-66975555D02*
X132189876Y-67002492D01*
X132189876Y-67002492D02*
X132082126Y-67002492D01*
X132082126Y-67002492D02*
X132001314Y-66975555D01*
X103118505Y-65463372D02*
X103091568Y-65382560D01*
X103091568Y-65382560D02*
X103010756Y-65301748D01*
X103010756Y-65301748D02*
X102903006Y-65247873D01*
X102903006Y-65247873D02*
X102795257Y-65247873D01*
X102795257Y-65247873D02*
X102714444Y-65274810D01*
X102714444Y-65274810D02*
X102579757Y-65355623D01*
X102579757Y-65355623D02*
X102498945Y-65436435D01*
X102498945Y-65436435D02*
X102418133Y-65571122D01*
X102418133Y-65571122D02*
X102391196Y-65651934D01*
X102391196Y-65651934D02*
X102391196Y-65759684D01*
X102391196Y-65759684D02*
X102445070Y-65867433D01*
X102445070Y-65867433D02*
X102498945Y-65921308D01*
X102498945Y-65921308D02*
X102606695Y-65975183D01*
X102606695Y-65975183D02*
X102660570Y-65975183D01*
X102660570Y-65975183D02*
X102849131Y-65786621D01*
X102849131Y-65786621D02*
X102741382Y-65678871D01*
X102849131Y-66271494D02*
X103414817Y-65705809D01*
X103414817Y-65705809D02*
X103630316Y-65921308D01*
X103630316Y-65921308D02*
X103657253Y-66002120D01*
X103657253Y-66002120D02*
X103657253Y-66055995D01*
X103657253Y-66055995D02*
X103630316Y-66136807D01*
X103630316Y-66136807D02*
X103549504Y-66217619D01*
X103549504Y-66217619D02*
X103468692Y-66244557D01*
X103468692Y-66244557D02*
X103414817Y-66244557D01*
X103414817Y-66244557D02*
X103334005Y-66217619D01*
X103334005Y-66217619D02*
X103118505Y-66002120D01*
X103899690Y-66298432D02*
X103953565Y-66298432D01*
X103953565Y-66298432D02*
X104034377Y-66325369D01*
X104034377Y-66325369D02*
X104169064Y-66460056D01*
X104169064Y-66460056D02*
X104196001Y-66540868D01*
X104196001Y-66540868D02*
X104196001Y-66594743D01*
X104196001Y-66594743D02*
X104169064Y-66675555D01*
X104169064Y-66675555D02*
X104115189Y-66729430D01*
X104115189Y-66729430D02*
X104007440Y-66783305D01*
X104007440Y-66783305D02*
X103360942Y-66783305D01*
X103360942Y-66783305D02*
X103711128Y-67133491D01*
X123438505Y-65363372D02*
X123411568Y-65282560D01*
X123411568Y-65282560D02*
X123330756Y-65201748D01*
X123330756Y-65201748D02*
X123223006Y-65147873D01*
X123223006Y-65147873D02*
X123115257Y-65147873D01*
X123115257Y-65147873D02*
X123034444Y-65174810D01*
X123034444Y-65174810D02*
X122899757Y-65255623D01*
X122899757Y-65255623D02*
X122818945Y-65336435D01*
X122818945Y-65336435D02*
X122738133Y-65471122D01*
X122738133Y-65471122D02*
X122711196Y-65551934D01*
X122711196Y-65551934D02*
X122711196Y-65659684D01*
X122711196Y-65659684D02*
X122765070Y-65767433D01*
X122765070Y-65767433D02*
X122818945Y-65821308D01*
X122818945Y-65821308D02*
X122926695Y-65875183D01*
X122926695Y-65875183D02*
X122980570Y-65875183D01*
X122980570Y-65875183D02*
X123169131Y-65686621D01*
X123169131Y-65686621D02*
X123061382Y-65578871D01*
X123169131Y-66171494D02*
X123734817Y-65605809D01*
X123734817Y-65605809D02*
X123950316Y-65821308D01*
X123950316Y-65821308D02*
X123977253Y-65902120D01*
X123977253Y-65902120D02*
X123977253Y-65955995D01*
X123977253Y-65955995D02*
X123950316Y-66036807D01*
X123950316Y-66036807D02*
X123869504Y-66117619D01*
X123869504Y-66117619D02*
X123788692Y-66144557D01*
X123788692Y-66144557D02*
X123734817Y-66144557D01*
X123734817Y-66144557D02*
X123654005Y-66117619D01*
X123654005Y-66117619D02*
X123438505Y-65902120D01*
X123761754Y-66764117D02*
X123869504Y-66871867D01*
X123869504Y-66871867D02*
X123950316Y-66898804D01*
X123950316Y-66898804D02*
X124004191Y-66898804D01*
X124004191Y-66898804D02*
X124138878Y-66871867D01*
X124138878Y-66871867D02*
X124273565Y-66791054D01*
X124273565Y-66791054D02*
X124489064Y-66575555D01*
X124489064Y-66575555D02*
X124516001Y-66494743D01*
X124516001Y-66494743D02*
X124516001Y-66440868D01*
X124516001Y-66440868D02*
X124489064Y-66360056D01*
X124489064Y-66360056D02*
X124381314Y-66252306D01*
X124381314Y-66252306D02*
X124300502Y-66225369D01*
X124300502Y-66225369D02*
X124246627Y-66225369D01*
X124246627Y-66225369D02*
X124165815Y-66252306D01*
X124165815Y-66252306D02*
X124031128Y-66386993D01*
X124031128Y-66386993D02*
X124004191Y-66467806D01*
X124004191Y-66467806D02*
X124004191Y-66521680D01*
X124004191Y-66521680D02*
X124031128Y-66602493D01*
X124031128Y-66602493D02*
X124138878Y-66710242D01*
X124138878Y-66710242D02*
X124219690Y-66737180D01*
X124219690Y-66737180D02*
X124273565Y-66737180D01*
X124273565Y-66737180D02*
X124354377Y-66710242D01*
X125951568Y-65336435D02*
X125924631Y-65255623D01*
X125924631Y-65255623D02*
X125843819Y-65174811D01*
X125843819Y-65174811D02*
X125736069Y-65120936D01*
X125736069Y-65120936D02*
X125628319Y-65120936D01*
X125628319Y-65120936D02*
X125547507Y-65147873D01*
X125547507Y-65147873D02*
X125412820Y-65228685D01*
X125412820Y-65228685D02*
X125332008Y-65309498D01*
X125332008Y-65309498D02*
X125251196Y-65444185D01*
X125251196Y-65444185D02*
X125224258Y-65524997D01*
X125224258Y-65524997D02*
X125224258Y-65632746D01*
X125224258Y-65632746D02*
X125278133Y-65740496D01*
X125278133Y-65740496D02*
X125332008Y-65794371D01*
X125332008Y-65794371D02*
X125439758Y-65848246D01*
X125439758Y-65848246D02*
X125493632Y-65848246D01*
X125493632Y-65848246D02*
X125682194Y-65659684D01*
X125682194Y-65659684D02*
X125574445Y-65551934D01*
X125682194Y-66144557D02*
X126247880Y-65578872D01*
X126247880Y-65578872D02*
X126005443Y-66467806D01*
X126005443Y-66467806D02*
X126571128Y-65902120D01*
X126274817Y-66737180D02*
X126840502Y-66171494D01*
X126840502Y-66171494D02*
X126975189Y-66306181D01*
X126975189Y-66306181D02*
X127029064Y-66413931D01*
X127029064Y-66413931D02*
X127029064Y-66521680D01*
X127029064Y-66521680D02*
X127002127Y-66602493D01*
X127002127Y-66602493D02*
X126921314Y-66737180D01*
X126921314Y-66737180D02*
X126840502Y-66817992D01*
X126840502Y-66817992D02*
X126705815Y-66898804D01*
X126705815Y-66898804D02*
X126625003Y-66925741D01*
X126625003Y-66925741D02*
X126517253Y-66925741D01*
X126517253Y-66925741D02*
X126409504Y-66871867D01*
X126409504Y-66871867D02*
X126274817Y-66737180D01*
X118328505Y-65263372D02*
X118301568Y-65182560D01*
X118301568Y-65182560D02*
X118220756Y-65101748D01*
X118220756Y-65101748D02*
X118113006Y-65047873D01*
X118113006Y-65047873D02*
X118005257Y-65047873D01*
X118005257Y-65047873D02*
X117924444Y-65074810D01*
X117924444Y-65074810D02*
X117789757Y-65155623D01*
X117789757Y-65155623D02*
X117708945Y-65236435D01*
X117708945Y-65236435D02*
X117628133Y-65371122D01*
X117628133Y-65371122D02*
X117601196Y-65451934D01*
X117601196Y-65451934D02*
X117601196Y-65559684D01*
X117601196Y-65559684D02*
X117655070Y-65667433D01*
X117655070Y-65667433D02*
X117708945Y-65721308D01*
X117708945Y-65721308D02*
X117816695Y-65775183D01*
X117816695Y-65775183D02*
X117870570Y-65775183D01*
X117870570Y-65775183D02*
X118059131Y-65586621D01*
X118059131Y-65586621D02*
X117951382Y-65478871D01*
X118059131Y-66071494D02*
X118624817Y-65505809D01*
X118624817Y-65505809D02*
X118840316Y-65721308D01*
X118840316Y-65721308D02*
X118867253Y-65802120D01*
X118867253Y-65802120D02*
X118867253Y-65855995D01*
X118867253Y-65855995D02*
X118840316Y-65936807D01*
X118840316Y-65936807D02*
X118759504Y-66017619D01*
X118759504Y-66017619D02*
X118678692Y-66044557D01*
X118678692Y-66044557D02*
X118624817Y-66044557D01*
X118624817Y-66044557D02*
X118544005Y-66017619D01*
X118544005Y-66017619D02*
X118328505Y-65802120D01*
X119136627Y-66017619D02*
X119513751Y-66394743D01*
X119513751Y-66394743D02*
X118705629Y-66717992D01*
X140949131Y-65393998D02*
X140922194Y-65313185D01*
X140922194Y-65313185D02*
X140841381Y-65232373D01*
X140841381Y-65232373D02*
X140733632Y-65178498D01*
X140733632Y-65178498D02*
X140625882Y-65178498D01*
X140625882Y-65178498D02*
X140545070Y-65205436D01*
X140545070Y-65205436D02*
X140410383Y-65286248D01*
X140410383Y-65286248D02*
X140329571Y-65367060D01*
X140329571Y-65367060D02*
X140248758Y-65501747D01*
X140248758Y-65501747D02*
X140221821Y-65582560D01*
X140221821Y-65582560D02*
X140221821Y-65690309D01*
X140221821Y-65690309D02*
X140275696Y-65798059D01*
X140275696Y-65798059D02*
X140329571Y-65851934D01*
X140329571Y-65851934D02*
X140437320Y-65905808D01*
X140437320Y-65905808D02*
X140491195Y-65905808D01*
X140491195Y-65905808D02*
X140679757Y-65717247D01*
X140679757Y-65717247D02*
X140572007Y-65609497D01*
X140679757Y-66202120D02*
X141245442Y-65636434D01*
X141245442Y-65636434D02*
X141460942Y-65851934D01*
X141460942Y-65851934D02*
X141487879Y-65932746D01*
X141487879Y-65932746D02*
X141487879Y-65986621D01*
X141487879Y-65986621D02*
X141460942Y-66067433D01*
X141460942Y-66067433D02*
X141380129Y-66148245D01*
X141380129Y-66148245D02*
X141299317Y-66175182D01*
X141299317Y-66175182D02*
X141245442Y-66175182D01*
X141245442Y-66175182D02*
X141164630Y-66148245D01*
X141164630Y-66148245D02*
X140949131Y-65932746D01*
X141541754Y-67064117D02*
X141218505Y-66740868D01*
X141380129Y-66902492D02*
X141945815Y-66336807D01*
X141945815Y-66336807D02*
X141811128Y-66363744D01*
X141811128Y-66363744D02*
X141703378Y-66363744D01*
X141703378Y-66363744D02*
X141622566Y-66336807D01*
X142403751Y-67171866D02*
X142026627Y-67548990D01*
X142484563Y-66821680D02*
X141945815Y-67091054D01*
X141945815Y-67091054D02*
X142296001Y-67441240D01*
X146274200Y-60759524D02*
X146312295Y-60645238D01*
X146312295Y-60645238D02*
X146312295Y-60454762D01*
X146312295Y-60454762D02*
X146274200Y-60378571D01*
X146274200Y-60378571D02*
X146236104Y-60340476D01*
X146236104Y-60340476D02*
X146159914Y-60302381D01*
X146159914Y-60302381D02*
X146083723Y-60302381D01*
X146083723Y-60302381D02*
X146007533Y-60340476D01*
X146007533Y-60340476D02*
X145969438Y-60378571D01*
X145969438Y-60378571D02*
X145931342Y-60454762D01*
X145931342Y-60454762D02*
X145893247Y-60607143D01*
X145893247Y-60607143D02*
X145855152Y-60683333D01*
X145855152Y-60683333D02*
X145817057Y-60721428D01*
X145817057Y-60721428D02*
X145740866Y-60759524D01*
X145740866Y-60759524D02*
X145664676Y-60759524D01*
X145664676Y-60759524D02*
X145588485Y-60721428D01*
X145588485Y-60721428D02*
X145550390Y-60683333D01*
X145550390Y-60683333D02*
X145512295Y-60607143D01*
X145512295Y-60607143D02*
X145512295Y-60416666D01*
X145512295Y-60416666D02*
X145550390Y-60302381D01*
X145512295Y-60035714D02*
X146312295Y-59845238D01*
X146312295Y-59845238D02*
X145740866Y-59692857D01*
X145740866Y-59692857D02*
X146312295Y-59540476D01*
X146312295Y-59540476D02*
X145512295Y-59350000D01*
X146236104Y-58588094D02*
X146274200Y-58626190D01*
X146274200Y-58626190D02*
X146312295Y-58740475D01*
X146312295Y-58740475D02*
X146312295Y-58816666D01*
X146312295Y-58816666D02*
X146274200Y-58930952D01*
X146274200Y-58930952D02*
X146198009Y-59007142D01*
X146198009Y-59007142D02*
X146121819Y-59045237D01*
X146121819Y-59045237D02*
X145969438Y-59083333D01*
X145969438Y-59083333D02*
X145855152Y-59083333D01*
X145855152Y-59083333D02*
X145702771Y-59045237D01*
X145702771Y-59045237D02*
X145626580Y-59007142D01*
X145626580Y-59007142D02*
X145550390Y-58930952D01*
X145550390Y-58930952D02*
X145512295Y-58816666D01*
X145512295Y-58816666D02*
X145512295Y-58740475D01*
X145512295Y-58740475D02*
X145550390Y-58626190D01*
X145550390Y-58626190D02*
X145588485Y-58588094D01*
X146312295Y-57864285D02*
X146312295Y-58245237D01*
X146312295Y-58245237D02*
X145512295Y-58245237D01*
X146312295Y-57597618D02*
X145512295Y-57597618D01*
X146312295Y-57140475D02*
X145855152Y-57483333D01*
X145512295Y-57140475D02*
X145969438Y-57597618D01*
X115818505Y-65363372D02*
X115791568Y-65282560D01*
X115791568Y-65282560D02*
X115710756Y-65201748D01*
X115710756Y-65201748D02*
X115603006Y-65147873D01*
X115603006Y-65147873D02*
X115495257Y-65147873D01*
X115495257Y-65147873D02*
X115414444Y-65174810D01*
X115414444Y-65174810D02*
X115279757Y-65255623D01*
X115279757Y-65255623D02*
X115198945Y-65336435D01*
X115198945Y-65336435D02*
X115118133Y-65471122D01*
X115118133Y-65471122D02*
X115091196Y-65551934D01*
X115091196Y-65551934D02*
X115091196Y-65659684D01*
X115091196Y-65659684D02*
X115145070Y-65767433D01*
X115145070Y-65767433D02*
X115198945Y-65821308D01*
X115198945Y-65821308D02*
X115306695Y-65875183D01*
X115306695Y-65875183D02*
X115360570Y-65875183D01*
X115360570Y-65875183D02*
X115549131Y-65686621D01*
X115549131Y-65686621D02*
X115441382Y-65578871D01*
X115549131Y-66171494D02*
X116114817Y-65605809D01*
X116114817Y-65605809D02*
X116330316Y-65821308D01*
X116330316Y-65821308D02*
X116357253Y-65902120D01*
X116357253Y-65902120D02*
X116357253Y-65955995D01*
X116357253Y-65955995D02*
X116330316Y-66036807D01*
X116330316Y-66036807D02*
X116249504Y-66117619D01*
X116249504Y-66117619D02*
X116168692Y-66144557D01*
X116168692Y-66144557D02*
X116114817Y-66144557D01*
X116114817Y-66144557D02*
X116034005Y-66117619D01*
X116034005Y-66117619D02*
X115818505Y-65902120D01*
X116922939Y-66413931D02*
X116815189Y-66306181D01*
X116815189Y-66306181D02*
X116734377Y-66279244D01*
X116734377Y-66279244D02*
X116680502Y-66279244D01*
X116680502Y-66279244D02*
X116545815Y-66306181D01*
X116545815Y-66306181D02*
X116411128Y-66386993D01*
X116411128Y-66386993D02*
X116195629Y-66602493D01*
X116195629Y-66602493D02*
X116168692Y-66683305D01*
X116168692Y-66683305D02*
X116168692Y-66737180D01*
X116168692Y-66737180D02*
X116195629Y-66817992D01*
X116195629Y-66817992D02*
X116303379Y-66925741D01*
X116303379Y-66925741D02*
X116384191Y-66952679D01*
X116384191Y-66952679D02*
X116438066Y-66952679D01*
X116438066Y-66952679D02*
X116518878Y-66925741D01*
X116518878Y-66925741D02*
X116653565Y-66791054D01*
X116653565Y-66791054D02*
X116680502Y-66710242D01*
X116680502Y-66710242D02*
X116680502Y-66656367D01*
X116680502Y-66656367D02*
X116653565Y-66575555D01*
X116653565Y-66575555D02*
X116545815Y-66467806D01*
X116545815Y-66467806D02*
X116465003Y-66440868D01*
X116465003Y-66440868D02*
X116411128Y-66440868D01*
X116411128Y-66440868D02*
X116330316Y-66467806D01*
X113251568Y-65336435D02*
X113224631Y-65255623D01*
X113224631Y-65255623D02*
X113143819Y-65174811D01*
X113143819Y-65174811D02*
X113036069Y-65120936D01*
X113036069Y-65120936D02*
X112928319Y-65120936D01*
X112928319Y-65120936D02*
X112847507Y-65147873D01*
X112847507Y-65147873D02*
X112712820Y-65228685D01*
X112712820Y-65228685D02*
X112632008Y-65309498D01*
X112632008Y-65309498D02*
X112551196Y-65444185D01*
X112551196Y-65444185D02*
X112524258Y-65524997D01*
X112524258Y-65524997D02*
X112524258Y-65632746D01*
X112524258Y-65632746D02*
X112578133Y-65740496D01*
X112578133Y-65740496D02*
X112632008Y-65794371D01*
X112632008Y-65794371D02*
X112739758Y-65848246D01*
X112739758Y-65848246D02*
X112793632Y-65848246D01*
X112793632Y-65848246D02*
X112982194Y-65659684D01*
X112982194Y-65659684D02*
X112874445Y-65551934D01*
X112982194Y-66144557D02*
X113547880Y-65578872D01*
X113547880Y-65578872D02*
X113305443Y-66467806D01*
X113305443Y-66467806D02*
X113871128Y-65902120D01*
X113574817Y-66737180D02*
X114140502Y-66171494D01*
X114140502Y-66171494D02*
X114275189Y-66306181D01*
X114275189Y-66306181D02*
X114329064Y-66413931D01*
X114329064Y-66413931D02*
X114329064Y-66521680D01*
X114329064Y-66521680D02*
X114302127Y-66602493D01*
X114302127Y-66602493D02*
X114221314Y-66737180D01*
X114221314Y-66737180D02*
X114140502Y-66817992D01*
X114140502Y-66817992D02*
X114005815Y-66898804D01*
X114005815Y-66898804D02*
X113925003Y-66925741D01*
X113925003Y-66925741D02*
X113817253Y-66925741D01*
X113817253Y-66925741D02*
X113709504Y-66871867D01*
X113709504Y-66871867D02*
X113574817Y-66737180D01*
X120898505Y-65363372D02*
X120871568Y-65282560D01*
X120871568Y-65282560D02*
X120790756Y-65201748D01*
X120790756Y-65201748D02*
X120683006Y-65147873D01*
X120683006Y-65147873D02*
X120575257Y-65147873D01*
X120575257Y-65147873D02*
X120494444Y-65174810D01*
X120494444Y-65174810D02*
X120359757Y-65255623D01*
X120359757Y-65255623D02*
X120278945Y-65336435D01*
X120278945Y-65336435D02*
X120198133Y-65471122D01*
X120198133Y-65471122D02*
X120171196Y-65551934D01*
X120171196Y-65551934D02*
X120171196Y-65659684D01*
X120171196Y-65659684D02*
X120225070Y-65767433D01*
X120225070Y-65767433D02*
X120278945Y-65821308D01*
X120278945Y-65821308D02*
X120386695Y-65875183D01*
X120386695Y-65875183D02*
X120440570Y-65875183D01*
X120440570Y-65875183D02*
X120629131Y-65686621D01*
X120629131Y-65686621D02*
X120521382Y-65578871D01*
X120629131Y-66171494D02*
X121194817Y-65605809D01*
X121194817Y-65605809D02*
X121410316Y-65821308D01*
X121410316Y-65821308D02*
X121437253Y-65902120D01*
X121437253Y-65902120D02*
X121437253Y-65955995D01*
X121437253Y-65955995D02*
X121410316Y-66036807D01*
X121410316Y-66036807D02*
X121329504Y-66117619D01*
X121329504Y-66117619D02*
X121248692Y-66144557D01*
X121248692Y-66144557D02*
X121194817Y-66144557D01*
X121194817Y-66144557D02*
X121114005Y-66117619D01*
X121114005Y-66117619D02*
X120898505Y-65902120D01*
X121598878Y-66494743D02*
X121571940Y-66413931D01*
X121571940Y-66413931D02*
X121571940Y-66360056D01*
X121571940Y-66360056D02*
X121598878Y-66279244D01*
X121598878Y-66279244D02*
X121625815Y-66252306D01*
X121625815Y-66252306D02*
X121706627Y-66225369D01*
X121706627Y-66225369D02*
X121760502Y-66225369D01*
X121760502Y-66225369D02*
X121841314Y-66252306D01*
X121841314Y-66252306D02*
X121949064Y-66360056D01*
X121949064Y-66360056D02*
X121976001Y-66440868D01*
X121976001Y-66440868D02*
X121976001Y-66494743D01*
X121976001Y-66494743D02*
X121949064Y-66575555D01*
X121949064Y-66575555D02*
X121922127Y-66602493D01*
X121922127Y-66602493D02*
X121841314Y-66629430D01*
X121841314Y-66629430D02*
X121787440Y-66629430D01*
X121787440Y-66629430D02*
X121706627Y-66602493D01*
X121706627Y-66602493D02*
X121598878Y-66494743D01*
X121598878Y-66494743D02*
X121518066Y-66467806D01*
X121518066Y-66467806D02*
X121464191Y-66467806D01*
X121464191Y-66467806D02*
X121383379Y-66494743D01*
X121383379Y-66494743D02*
X121275629Y-66602493D01*
X121275629Y-66602493D02*
X121248692Y-66683305D01*
X121248692Y-66683305D02*
X121248692Y-66737180D01*
X121248692Y-66737180D02*
X121275629Y-66817992D01*
X121275629Y-66817992D02*
X121383379Y-66925741D01*
X121383379Y-66925741D02*
X121464191Y-66952679D01*
X121464191Y-66952679D02*
X121518066Y-66952679D01*
X121518066Y-66952679D02*
X121598878Y-66925741D01*
X121598878Y-66925741D02*
X121706627Y-66817992D01*
X121706627Y-66817992D02*
X121733565Y-66737180D01*
X121733565Y-66737180D02*
X121733565Y-66683305D01*
X121733565Y-66683305D02*
X121706627Y-66602493D01*
X110738505Y-65363372D02*
X110711568Y-65282560D01*
X110711568Y-65282560D02*
X110630756Y-65201748D01*
X110630756Y-65201748D02*
X110523006Y-65147873D01*
X110523006Y-65147873D02*
X110415257Y-65147873D01*
X110415257Y-65147873D02*
X110334444Y-65174810D01*
X110334444Y-65174810D02*
X110199757Y-65255623D01*
X110199757Y-65255623D02*
X110118945Y-65336435D01*
X110118945Y-65336435D02*
X110038133Y-65471122D01*
X110038133Y-65471122D02*
X110011196Y-65551934D01*
X110011196Y-65551934D02*
X110011196Y-65659684D01*
X110011196Y-65659684D02*
X110065070Y-65767433D01*
X110065070Y-65767433D02*
X110118945Y-65821308D01*
X110118945Y-65821308D02*
X110226695Y-65875183D01*
X110226695Y-65875183D02*
X110280570Y-65875183D01*
X110280570Y-65875183D02*
X110469131Y-65686621D01*
X110469131Y-65686621D02*
X110361382Y-65578871D01*
X110469131Y-66171494D02*
X111034817Y-65605809D01*
X111034817Y-65605809D02*
X111250316Y-65821308D01*
X111250316Y-65821308D02*
X111277253Y-65902120D01*
X111277253Y-65902120D02*
X111277253Y-65955995D01*
X111277253Y-65955995D02*
X111250316Y-66036807D01*
X111250316Y-66036807D02*
X111169504Y-66117619D01*
X111169504Y-66117619D02*
X111088692Y-66144557D01*
X111088692Y-66144557D02*
X111034817Y-66144557D01*
X111034817Y-66144557D02*
X110954005Y-66117619D01*
X110954005Y-66117619D02*
X110738505Y-65902120D01*
X111869876Y-66440868D02*
X111600502Y-66171494D01*
X111600502Y-66171494D02*
X111304191Y-66413931D01*
X111304191Y-66413931D02*
X111358066Y-66413931D01*
X111358066Y-66413931D02*
X111438878Y-66440868D01*
X111438878Y-66440868D02*
X111573565Y-66575555D01*
X111573565Y-66575555D02*
X111600502Y-66656367D01*
X111600502Y-66656367D02*
X111600502Y-66710242D01*
X111600502Y-66710242D02*
X111573565Y-66791054D01*
X111573565Y-66791054D02*
X111438878Y-66925741D01*
X111438878Y-66925741D02*
X111358066Y-66952679D01*
X111358066Y-66952679D02*
X111304191Y-66952679D01*
X111304191Y-66952679D02*
X111223379Y-66925741D01*
X111223379Y-66925741D02*
X111088692Y-66791054D01*
X111088692Y-66791054D02*
X111061754Y-66710242D01*
X111061754Y-66710242D02*
X111061754Y-66656367D01*
X105658505Y-65363372D02*
X105631568Y-65282560D01*
X105631568Y-65282560D02*
X105550756Y-65201748D01*
X105550756Y-65201748D02*
X105443006Y-65147873D01*
X105443006Y-65147873D02*
X105335257Y-65147873D01*
X105335257Y-65147873D02*
X105254444Y-65174810D01*
X105254444Y-65174810D02*
X105119757Y-65255623D01*
X105119757Y-65255623D02*
X105038945Y-65336435D01*
X105038945Y-65336435D02*
X104958133Y-65471122D01*
X104958133Y-65471122D02*
X104931196Y-65551934D01*
X104931196Y-65551934D02*
X104931196Y-65659684D01*
X104931196Y-65659684D02*
X104985070Y-65767433D01*
X104985070Y-65767433D02*
X105038945Y-65821308D01*
X105038945Y-65821308D02*
X105146695Y-65875183D01*
X105146695Y-65875183D02*
X105200570Y-65875183D01*
X105200570Y-65875183D02*
X105389131Y-65686621D01*
X105389131Y-65686621D02*
X105281382Y-65578871D01*
X105389131Y-66171494D02*
X105954817Y-65605809D01*
X105954817Y-65605809D02*
X106170316Y-65821308D01*
X106170316Y-65821308D02*
X106197253Y-65902120D01*
X106197253Y-65902120D02*
X106197253Y-65955995D01*
X106197253Y-65955995D02*
X106170316Y-66036807D01*
X106170316Y-66036807D02*
X106089504Y-66117619D01*
X106089504Y-66117619D02*
X106008692Y-66144557D01*
X106008692Y-66144557D02*
X105954817Y-66144557D01*
X105954817Y-66144557D02*
X105874005Y-66117619D01*
X105874005Y-66117619D02*
X105658505Y-65902120D01*
X106466627Y-66117619D02*
X106816814Y-66467806D01*
X106816814Y-66467806D02*
X106412753Y-66494743D01*
X106412753Y-66494743D02*
X106493565Y-66575555D01*
X106493565Y-66575555D02*
X106520502Y-66656367D01*
X106520502Y-66656367D02*
X106520502Y-66710242D01*
X106520502Y-66710242D02*
X106493565Y-66791054D01*
X106493565Y-66791054D02*
X106358878Y-66925741D01*
X106358878Y-66925741D02*
X106278066Y-66952679D01*
X106278066Y-66952679D02*
X106224191Y-66952679D01*
X106224191Y-66952679D02*
X106143379Y-66925741D01*
X106143379Y-66925741D02*
X105981754Y-66764117D01*
X105981754Y-66764117D02*
X105954817Y-66683305D01*
X105954817Y-66683305D02*
X105954817Y-66629430D01*
X143489131Y-65347998D02*
X143462194Y-65267185D01*
X143462194Y-65267185D02*
X143381381Y-65186373D01*
X143381381Y-65186373D02*
X143273632Y-65132498D01*
X143273632Y-65132498D02*
X143165882Y-65132498D01*
X143165882Y-65132498D02*
X143085070Y-65159436D01*
X143085070Y-65159436D02*
X142950383Y-65240248D01*
X142950383Y-65240248D02*
X142869571Y-65321060D01*
X142869571Y-65321060D02*
X142788758Y-65455747D01*
X142788758Y-65455747D02*
X142761821Y-65536560D01*
X142761821Y-65536560D02*
X142761821Y-65644309D01*
X142761821Y-65644309D02*
X142815696Y-65752059D01*
X142815696Y-65752059D02*
X142869571Y-65805934D01*
X142869571Y-65805934D02*
X142977320Y-65859808D01*
X142977320Y-65859808D02*
X143031195Y-65859808D01*
X143031195Y-65859808D02*
X143219757Y-65671247D01*
X143219757Y-65671247D02*
X143112007Y-65563497D01*
X143219757Y-66156120D02*
X143785442Y-65590434D01*
X143785442Y-65590434D02*
X144000942Y-65805934D01*
X144000942Y-65805934D02*
X144027879Y-65886746D01*
X144027879Y-65886746D02*
X144027879Y-65940621D01*
X144027879Y-65940621D02*
X144000942Y-66021433D01*
X144000942Y-66021433D02*
X143920129Y-66102245D01*
X143920129Y-66102245D02*
X143839317Y-66129182D01*
X143839317Y-66129182D02*
X143785442Y-66129182D01*
X143785442Y-66129182D02*
X143704630Y-66102245D01*
X143704630Y-66102245D02*
X143489131Y-65886746D01*
X144081754Y-67018117D02*
X143758505Y-66694868D01*
X143920129Y-66856492D02*
X144485815Y-66290807D01*
X144485815Y-66290807D02*
X144351128Y-66317744D01*
X144351128Y-66317744D02*
X144243378Y-66317744D01*
X144243378Y-66317744D02*
X144162566Y-66290807D01*
X145159250Y-66964242D02*
X144889876Y-66694868D01*
X144889876Y-66694868D02*
X144593565Y-66937305D01*
X144593565Y-66937305D02*
X144647439Y-66937305D01*
X144647439Y-66937305D02*
X144728252Y-66964242D01*
X144728252Y-66964242D02*
X144862939Y-67098929D01*
X144862939Y-67098929D02*
X144889876Y-67179741D01*
X144889876Y-67179741D02*
X144889876Y-67233616D01*
X144889876Y-67233616D02*
X144862939Y-67314428D01*
X144862939Y-67314428D02*
X144728252Y-67449115D01*
X144728252Y-67449115D02*
X144647439Y-67476053D01*
X144647439Y-67476053D02*
X144593565Y-67476053D01*
X144593565Y-67476053D02*
X144512752Y-67449115D01*
X144512752Y-67449115D02*
X144378065Y-67314428D01*
X144378065Y-67314428D02*
X144351128Y-67233616D01*
X144351128Y-67233616D02*
X144351128Y-67179741D01*
D10*
X113220957Y-64857419D02*
X113220957Y-65666942D01*
X113220957Y-65666942D02*
X113268576Y-65762180D01*
X113268576Y-65762180D02*
X113316195Y-65809800D01*
X113316195Y-65809800D02*
X113411433Y-65857419D01*
X113411433Y-65857419D02*
X113601909Y-65857419D01*
X113601909Y-65857419D02*
X113697147Y-65809800D01*
X113697147Y-65809800D02*
X113744766Y-65762180D01*
X113744766Y-65762180D02*
X113792385Y-65666942D01*
X113792385Y-65666942D02*
X113792385Y-64857419D01*
X114697147Y-65190752D02*
X114697147Y-65857419D01*
X114459052Y-64809800D02*
X114220957Y-65524085D01*
X114220957Y-65524085D02*
X114840004Y-65524085D01*
X115649528Y-64857419D02*
X115459052Y-64857419D01*
X115459052Y-64857419D02*
X115363814Y-64905038D01*
X115363814Y-64905038D02*
X115316195Y-64952657D01*
X115316195Y-64952657D02*
X115220957Y-65095514D01*
X115220957Y-65095514D02*
X115173338Y-65285990D01*
X115173338Y-65285990D02*
X115173338Y-65666942D01*
X115173338Y-65666942D02*
X115220957Y-65762180D01*
X115220957Y-65762180D02*
X115268576Y-65809800D01*
X115268576Y-65809800D02*
X115363814Y-65857419D01*
X115363814Y-65857419D02*
X115554290Y-65857419D01*
X115554290Y-65857419D02*
X115649528Y-65809800D01*
X115649528Y-65809800D02*
X115697147Y-65762180D01*
X115697147Y-65762180D02*
X115744766Y-65666942D01*
X115744766Y-65666942D02*
X115744766Y-65428847D01*
X115744766Y-65428847D02*
X115697147Y-65333609D01*
X115697147Y-65333609D02*
X115649528Y-65285990D01*
X115649528Y-65285990D02*
X115554290Y-65238371D01*
X115554290Y-65238371D02*
X115363814Y-65238371D01*
X115363814Y-65238371D02*
X115268576Y-65285990D01*
X115268576Y-65285990D02*
X115220957Y-65333609D01*
X115220957Y-65333609D02*
X115173338Y-65428847D01*
D11*
X162533333Y-55035009D02*
X162676190Y-55082628D01*
X162676190Y-55082628D02*
X162723809Y-55130247D01*
X162723809Y-55130247D02*
X162771428Y-55225485D01*
X162771428Y-55225485D02*
X162771428Y-55368342D01*
X162771428Y-55368342D02*
X162723809Y-55463580D01*
X162723809Y-55463580D02*
X162676190Y-55511200D01*
X162676190Y-55511200D02*
X162580952Y-55558819D01*
X162580952Y-55558819D02*
X162200000Y-55558819D01*
X162200000Y-55558819D02*
X162200000Y-54558819D01*
X162200000Y-54558819D02*
X162533333Y-54558819D01*
X162533333Y-54558819D02*
X162628571Y-54606438D01*
X162628571Y-54606438D02*
X162676190Y-54654057D01*
X162676190Y-54654057D02*
X162723809Y-54749295D01*
X162723809Y-54749295D02*
X162723809Y-54844533D01*
X162723809Y-54844533D02*
X162676190Y-54939771D01*
X162676190Y-54939771D02*
X162628571Y-54987390D01*
X162628571Y-54987390D02*
X162533333Y-55035009D01*
X162533333Y-55035009D02*
X162200000Y-55035009D01*
X163200000Y-55558819D02*
X163200000Y-54892152D01*
X163200000Y-55082628D02*
X163247619Y-54987390D01*
X163247619Y-54987390D02*
X163295238Y-54939771D01*
X163295238Y-54939771D02*
X163390476Y-54892152D01*
X163390476Y-54892152D02*
X163485714Y-54892152D01*
X164247619Y-55558819D02*
X164247619Y-54558819D01*
X164247619Y-55511200D02*
X164152381Y-55558819D01*
X164152381Y-55558819D02*
X163961905Y-55558819D01*
X163961905Y-55558819D02*
X163866667Y-55511200D01*
X163866667Y-55511200D02*
X163819048Y-55463580D01*
X163819048Y-55463580D02*
X163771429Y-55368342D01*
X163771429Y-55368342D02*
X163771429Y-55082628D01*
X163771429Y-55082628D02*
X163819048Y-54987390D01*
X163819048Y-54987390D02*
X163866667Y-54939771D01*
X163866667Y-54939771D02*
X163961905Y-54892152D01*
X163961905Y-54892152D02*
X164152381Y-54892152D01*
X164152381Y-54892152D02*
X164247619Y-54939771D01*
X165247619Y-55558819D02*
X164676191Y-55558819D01*
X164961905Y-55558819D02*
X164961905Y-54558819D01*
X164961905Y-54558819D02*
X164866667Y-54701676D01*
X164866667Y-54701676D02*
X164771429Y-54796914D01*
X164771429Y-54796914D02*
X164676191Y-54844533D01*
D10*
X141170957Y-92807419D02*
X141170957Y-93616942D01*
X141170957Y-93616942D02*
X141218576Y-93712180D01*
X141218576Y-93712180D02*
X141266195Y-93759800D01*
X141266195Y-93759800D02*
X141361433Y-93807419D01*
X141361433Y-93807419D02*
X141551909Y-93807419D01*
X141551909Y-93807419D02*
X141647147Y-93759800D01*
X141647147Y-93759800D02*
X141694766Y-93712180D01*
X141694766Y-93712180D02*
X141742385Y-93616942D01*
X141742385Y-93616942D02*
X141742385Y-92807419D01*
X142742385Y-93807419D02*
X142170957Y-93807419D01*
X142456671Y-93807419D02*
X142456671Y-92807419D01*
X142456671Y-92807419D02*
X142361433Y-92950276D01*
X142361433Y-92950276D02*
X142266195Y-93045514D01*
X142266195Y-93045514D02*
X142170957Y-93093133D01*
X143123338Y-92902657D02*
X143170957Y-92855038D01*
X143170957Y-92855038D02*
X143266195Y-92807419D01*
X143266195Y-92807419D02*
X143504290Y-92807419D01*
X143504290Y-92807419D02*
X143599528Y-92855038D01*
X143599528Y-92855038D02*
X143647147Y-92902657D01*
X143647147Y-92902657D02*
X143694766Y-92997895D01*
X143694766Y-92997895D02*
X143694766Y-93093133D01*
X143694766Y-93093133D02*
X143647147Y-93235990D01*
X143647147Y-93235990D02*
X143075719Y-93807419D01*
X143075719Y-93807419D02*
X143694766Y-93807419D01*
X102127919Y-123038094D02*
X102937442Y-123038094D01*
X102937442Y-123038094D02*
X103032680Y-122990475D01*
X103032680Y-122990475D02*
X103080300Y-122942856D01*
X103080300Y-122942856D02*
X103127919Y-122847618D01*
X103127919Y-122847618D02*
X103127919Y-122657142D01*
X103127919Y-122657142D02*
X103080300Y-122561904D01*
X103080300Y-122561904D02*
X103032680Y-122514285D01*
X103032680Y-122514285D02*
X102937442Y-122466666D01*
X102937442Y-122466666D02*
X102127919Y-122466666D01*
X102127919Y-122085713D02*
X102127919Y-121466666D01*
X102127919Y-121466666D02*
X102508871Y-121799999D01*
X102508871Y-121799999D02*
X102508871Y-121657142D01*
X102508871Y-121657142D02*
X102556490Y-121561904D01*
X102556490Y-121561904D02*
X102604109Y-121514285D01*
X102604109Y-121514285D02*
X102699347Y-121466666D01*
X102699347Y-121466666D02*
X102937442Y-121466666D01*
X102937442Y-121466666D02*
X103032680Y-121514285D01*
X103032680Y-121514285D02*
X103080300Y-121561904D01*
X103080300Y-121561904D02*
X103127919Y-121657142D01*
X103127919Y-121657142D02*
X103127919Y-121942856D01*
X103127919Y-121942856D02*
X103080300Y-122038094D01*
X103080300Y-122038094D02*
X103032680Y-122085713D01*
X103127919Y-120514285D02*
X103127919Y-121085713D01*
X103127919Y-120799999D02*
X102127919Y-120799999D01*
X102127919Y-120799999D02*
X102270776Y-120895237D01*
X102270776Y-120895237D02*
X102366014Y-120990475D01*
X102366014Y-120990475D02*
X102413633Y-121085713D01*
X113170957Y-120807419D02*
X113170957Y-121616942D01*
X113170957Y-121616942D02*
X113218576Y-121712180D01*
X113218576Y-121712180D02*
X113266195Y-121759800D01*
X113266195Y-121759800D02*
X113361433Y-121807419D01*
X113361433Y-121807419D02*
X113551909Y-121807419D01*
X113551909Y-121807419D02*
X113647147Y-121759800D01*
X113647147Y-121759800D02*
X113694766Y-121712180D01*
X113694766Y-121712180D02*
X113742385Y-121616942D01*
X113742385Y-121616942D02*
X113742385Y-120807419D01*
X114647147Y-121140752D02*
X114647147Y-121807419D01*
X114409052Y-120759800D02*
X114170957Y-121474085D01*
X114170957Y-121474085D02*
X114790004Y-121474085D01*
X115361433Y-120807419D02*
X115456671Y-120807419D01*
X115456671Y-120807419D02*
X115551909Y-120855038D01*
X115551909Y-120855038D02*
X115599528Y-120902657D01*
X115599528Y-120902657D02*
X115647147Y-120997895D01*
X115647147Y-120997895D02*
X115694766Y-121188371D01*
X115694766Y-121188371D02*
X115694766Y-121426466D01*
X115694766Y-121426466D02*
X115647147Y-121616942D01*
X115647147Y-121616942D02*
X115599528Y-121712180D01*
X115599528Y-121712180D02*
X115551909Y-121759800D01*
X115551909Y-121759800D02*
X115456671Y-121807419D01*
X115456671Y-121807419D02*
X115361433Y-121807419D01*
X115361433Y-121807419D02*
X115266195Y-121759800D01*
X115266195Y-121759800D02*
X115218576Y-121712180D01*
X115218576Y-121712180D02*
X115170957Y-121616942D01*
X115170957Y-121616942D02*
X115123338Y-121426466D01*
X115123338Y-121426466D02*
X115123338Y-121188371D01*
X115123338Y-121188371D02*
X115170957Y-120997895D01*
X115170957Y-120997895D02*
X115218576Y-120902657D01*
X115218576Y-120902657D02*
X115266195Y-120855038D01*
X115266195Y-120855038D02*
X115361433Y-120807419D01*
X155170957Y-78807419D02*
X155170957Y-79616942D01*
X155170957Y-79616942D02*
X155218576Y-79712180D01*
X155218576Y-79712180D02*
X155266195Y-79759800D01*
X155266195Y-79759800D02*
X155361433Y-79807419D01*
X155361433Y-79807419D02*
X155551909Y-79807419D01*
X155551909Y-79807419D02*
X155647147Y-79759800D01*
X155647147Y-79759800D02*
X155694766Y-79712180D01*
X155694766Y-79712180D02*
X155742385Y-79616942D01*
X155742385Y-79616942D02*
X155742385Y-78807419D01*
X156647147Y-79140752D02*
X156647147Y-79807419D01*
X156409052Y-78759800D02*
X156170957Y-79474085D01*
X156170957Y-79474085D02*
X156790004Y-79474085D01*
X157075719Y-78807419D02*
X157694766Y-78807419D01*
X157694766Y-78807419D02*
X157361433Y-79188371D01*
X157361433Y-79188371D02*
X157504290Y-79188371D01*
X157504290Y-79188371D02*
X157599528Y-79235990D01*
X157599528Y-79235990D02*
X157647147Y-79283609D01*
X157647147Y-79283609D02*
X157694766Y-79378847D01*
X157694766Y-79378847D02*
X157694766Y-79616942D01*
X157694766Y-79616942D02*
X157647147Y-79712180D01*
X157647147Y-79712180D02*
X157599528Y-79759800D01*
X157599528Y-79759800D02*
X157504290Y-79807419D01*
X157504290Y-79807419D02*
X157218576Y-79807419D01*
X157218576Y-79807419D02*
X157123338Y-79759800D01*
X157123338Y-79759800D02*
X157075719Y-79712180D01*
X99647147Y-92807419D02*
X99647147Y-93616942D01*
X99647147Y-93616942D02*
X99694766Y-93712180D01*
X99694766Y-93712180D02*
X99742385Y-93759800D01*
X99742385Y-93759800D02*
X99837623Y-93807419D01*
X99837623Y-93807419D02*
X100028099Y-93807419D01*
X100028099Y-93807419D02*
X100123337Y-93759800D01*
X100123337Y-93759800D02*
X100170956Y-93712180D01*
X100170956Y-93712180D02*
X100218575Y-93616942D01*
X100218575Y-93616942D02*
X100218575Y-92807419D01*
X100599528Y-92807419D02*
X101218575Y-92807419D01*
X101218575Y-92807419D02*
X100885242Y-93188371D01*
X100885242Y-93188371D02*
X101028099Y-93188371D01*
X101028099Y-93188371D02*
X101123337Y-93235990D01*
X101123337Y-93235990D02*
X101170956Y-93283609D01*
X101170956Y-93283609D02*
X101218575Y-93378847D01*
X101218575Y-93378847D02*
X101218575Y-93616942D01*
X101218575Y-93616942D02*
X101170956Y-93712180D01*
X101170956Y-93712180D02*
X101123337Y-93759800D01*
X101123337Y-93759800D02*
X101028099Y-93807419D01*
X101028099Y-93807419D02*
X100742385Y-93807419D01*
X100742385Y-93807419D02*
X100647147Y-93759800D01*
X100647147Y-93759800D02*
X100599528Y-93712180D01*
X141170957Y-64807419D02*
X141170957Y-65616942D01*
X141170957Y-65616942D02*
X141218576Y-65712180D01*
X141218576Y-65712180D02*
X141266195Y-65759800D01*
X141266195Y-65759800D02*
X141361433Y-65807419D01*
X141361433Y-65807419D02*
X141551909Y-65807419D01*
X141551909Y-65807419D02*
X141647147Y-65759800D01*
X141647147Y-65759800D02*
X141694766Y-65712180D01*
X141694766Y-65712180D02*
X141742385Y-65616942D01*
X141742385Y-65616942D02*
X141742385Y-64807419D01*
X142647147Y-65140752D02*
X142647147Y-65807419D01*
X142409052Y-64759800D02*
X142170957Y-65474085D01*
X142170957Y-65474085D02*
X142790004Y-65474085D01*
X143313814Y-65235990D02*
X143218576Y-65188371D01*
X143218576Y-65188371D02*
X143170957Y-65140752D01*
X143170957Y-65140752D02*
X143123338Y-65045514D01*
X143123338Y-65045514D02*
X143123338Y-64997895D01*
X143123338Y-64997895D02*
X143170957Y-64902657D01*
X143170957Y-64902657D02*
X143218576Y-64855038D01*
X143218576Y-64855038D02*
X143313814Y-64807419D01*
X143313814Y-64807419D02*
X143504290Y-64807419D01*
X143504290Y-64807419D02*
X143599528Y-64855038D01*
X143599528Y-64855038D02*
X143647147Y-64902657D01*
X143647147Y-64902657D02*
X143694766Y-64997895D01*
X143694766Y-64997895D02*
X143694766Y-65045514D01*
X143694766Y-65045514D02*
X143647147Y-65140752D01*
X143647147Y-65140752D02*
X143599528Y-65188371D01*
X143599528Y-65188371D02*
X143504290Y-65235990D01*
X143504290Y-65235990D02*
X143313814Y-65235990D01*
X143313814Y-65235990D02*
X143218576Y-65283609D01*
X143218576Y-65283609D02*
X143170957Y-65331228D01*
X143170957Y-65331228D02*
X143123338Y-65426466D01*
X143123338Y-65426466D02*
X143123338Y-65616942D01*
X143123338Y-65616942D02*
X143170957Y-65712180D01*
X143170957Y-65712180D02*
X143218576Y-65759800D01*
X143218576Y-65759800D02*
X143313814Y-65807419D01*
X143313814Y-65807419D02*
X143504290Y-65807419D01*
X143504290Y-65807419D02*
X143599528Y-65759800D01*
X143599528Y-65759800D02*
X143647147Y-65712180D01*
X143647147Y-65712180D02*
X143694766Y-65616942D01*
X143694766Y-65616942D02*
X143694766Y-65426466D01*
X143694766Y-65426466D02*
X143647147Y-65331228D01*
X143647147Y-65331228D02*
X143599528Y-65283609D01*
X143599528Y-65283609D02*
X143504290Y-65235990D01*
X127647147Y-92807419D02*
X127647147Y-93616942D01*
X127647147Y-93616942D02*
X127694766Y-93712180D01*
X127694766Y-93712180D02*
X127742385Y-93759800D01*
X127742385Y-93759800D02*
X127837623Y-93807419D01*
X127837623Y-93807419D02*
X128028099Y-93807419D01*
X128028099Y-93807419D02*
X128123337Y-93759800D01*
X128123337Y-93759800D02*
X128170956Y-93712180D01*
X128170956Y-93712180D02*
X128218575Y-93616942D01*
X128218575Y-93616942D02*
X128218575Y-92807419D01*
X128599528Y-92807419D02*
X129266194Y-92807419D01*
X129266194Y-92807419D02*
X128837623Y-93807419D01*
X113647147Y-92807419D02*
X113647147Y-93616942D01*
X113647147Y-93616942D02*
X113694766Y-93712180D01*
X113694766Y-93712180D02*
X113742385Y-93759800D01*
X113742385Y-93759800D02*
X113837623Y-93807419D01*
X113837623Y-93807419D02*
X114028099Y-93807419D01*
X114028099Y-93807419D02*
X114123337Y-93759800D01*
X114123337Y-93759800D02*
X114170956Y-93712180D01*
X114170956Y-93712180D02*
X114218575Y-93616942D01*
X114218575Y-93616942D02*
X114218575Y-92807419D01*
X115123337Y-92807419D02*
X114932861Y-92807419D01*
X114932861Y-92807419D02*
X114837623Y-92855038D01*
X114837623Y-92855038D02*
X114790004Y-92902657D01*
X114790004Y-92902657D02*
X114694766Y-93045514D01*
X114694766Y-93045514D02*
X114647147Y-93235990D01*
X114647147Y-93235990D02*
X114647147Y-93616942D01*
X114647147Y-93616942D02*
X114694766Y-93712180D01*
X114694766Y-93712180D02*
X114742385Y-93759800D01*
X114742385Y-93759800D02*
X114837623Y-93807419D01*
X114837623Y-93807419D02*
X115028099Y-93807419D01*
X115028099Y-93807419D02*
X115123337Y-93759800D01*
X115123337Y-93759800D02*
X115170956Y-93712180D01*
X115170956Y-93712180D02*
X115218575Y-93616942D01*
X115218575Y-93616942D02*
X115218575Y-93378847D01*
X115218575Y-93378847D02*
X115170956Y-93283609D01*
X115170956Y-93283609D02*
X115123337Y-93235990D01*
X115123337Y-93235990D02*
X115028099Y-93188371D01*
X115028099Y-93188371D02*
X114837623Y-93188371D01*
X114837623Y-93188371D02*
X114742385Y-93235990D01*
X114742385Y-93235990D02*
X114694766Y-93283609D01*
X114694766Y-93283609D02*
X114647147Y-93378847D01*
X113170957Y-106807419D02*
X113170957Y-107616942D01*
X113170957Y-107616942D02*
X113218576Y-107712180D01*
X113218576Y-107712180D02*
X113266195Y-107759800D01*
X113266195Y-107759800D02*
X113361433Y-107807419D01*
X113361433Y-107807419D02*
X113551909Y-107807419D01*
X113551909Y-107807419D02*
X113647147Y-107759800D01*
X113647147Y-107759800D02*
X113694766Y-107712180D01*
X113694766Y-107712180D02*
X113742385Y-107616942D01*
X113742385Y-107616942D02*
X113742385Y-106807419D01*
X114742385Y-107807419D02*
X114170957Y-107807419D01*
X114456671Y-107807419D02*
X114456671Y-106807419D01*
X114456671Y-106807419D02*
X114361433Y-106950276D01*
X114361433Y-106950276D02*
X114266195Y-107045514D01*
X114266195Y-107045514D02*
X114170957Y-107093133D01*
X115647147Y-106807419D02*
X115170957Y-106807419D01*
X115170957Y-106807419D02*
X115123338Y-107283609D01*
X115123338Y-107283609D02*
X115170957Y-107235990D01*
X115170957Y-107235990D02*
X115266195Y-107188371D01*
X115266195Y-107188371D02*
X115504290Y-107188371D01*
X115504290Y-107188371D02*
X115599528Y-107235990D01*
X115599528Y-107235990D02*
X115647147Y-107283609D01*
X115647147Y-107283609D02*
X115694766Y-107378847D01*
X115694766Y-107378847D02*
X115694766Y-107616942D01*
X115694766Y-107616942D02*
X115647147Y-107712180D01*
X115647147Y-107712180D02*
X115599528Y-107759800D01*
X115599528Y-107759800D02*
X115504290Y-107807419D01*
X115504290Y-107807419D02*
X115266195Y-107807419D01*
X115266195Y-107807419D02*
X115170957Y-107759800D01*
X115170957Y-107759800D02*
X115123338Y-107712180D01*
X127170957Y-106807419D02*
X127170957Y-107616942D01*
X127170957Y-107616942D02*
X127218576Y-107712180D01*
X127218576Y-107712180D02*
X127266195Y-107759800D01*
X127266195Y-107759800D02*
X127361433Y-107807419D01*
X127361433Y-107807419D02*
X127551909Y-107807419D01*
X127551909Y-107807419D02*
X127647147Y-107759800D01*
X127647147Y-107759800D02*
X127694766Y-107712180D01*
X127694766Y-107712180D02*
X127742385Y-107616942D01*
X127742385Y-107616942D02*
X127742385Y-106807419D01*
X128170957Y-106902657D02*
X128218576Y-106855038D01*
X128218576Y-106855038D02*
X128313814Y-106807419D01*
X128313814Y-106807419D02*
X128551909Y-106807419D01*
X128551909Y-106807419D02*
X128647147Y-106855038D01*
X128647147Y-106855038D02*
X128694766Y-106902657D01*
X128694766Y-106902657D02*
X128742385Y-106997895D01*
X128742385Y-106997895D02*
X128742385Y-107093133D01*
X128742385Y-107093133D02*
X128694766Y-107235990D01*
X128694766Y-107235990D02*
X128123338Y-107807419D01*
X128123338Y-107807419D02*
X128742385Y-107807419D01*
X129313814Y-107235990D02*
X129218576Y-107188371D01*
X129218576Y-107188371D02*
X129170957Y-107140752D01*
X129170957Y-107140752D02*
X129123338Y-107045514D01*
X129123338Y-107045514D02*
X129123338Y-106997895D01*
X129123338Y-106997895D02*
X129170957Y-106902657D01*
X129170957Y-106902657D02*
X129218576Y-106855038D01*
X129218576Y-106855038D02*
X129313814Y-106807419D01*
X129313814Y-106807419D02*
X129504290Y-106807419D01*
X129504290Y-106807419D02*
X129599528Y-106855038D01*
X129599528Y-106855038D02*
X129647147Y-106902657D01*
X129647147Y-106902657D02*
X129694766Y-106997895D01*
X129694766Y-106997895D02*
X129694766Y-107045514D01*
X129694766Y-107045514D02*
X129647147Y-107140752D01*
X129647147Y-107140752D02*
X129599528Y-107188371D01*
X129599528Y-107188371D02*
X129504290Y-107235990D01*
X129504290Y-107235990D02*
X129313814Y-107235990D01*
X129313814Y-107235990D02*
X129218576Y-107283609D01*
X129218576Y-107283609D02*
X129170957Y-107331228D01*
X129170957Y-107331228D02*
X129123338Y-107426466D01*
X129123338Y-107426466D02*
X129123338Y-107616942D01*
X129123338Y-107616942D02*
X129170957Y-107712180D01*
X129170957Y-107712180D02*
X129218576Y-107759800D01*
X129218576Y-107759800D02*
X129313814Y-107807419D01*
X129313814Y-107807419D02*
X129504290Y-107807419D01*
X129504290Y-107807419D02*
X129599528Y-107759800D01*
X129599528Y-107759800D02*
X129647147Y-107712180D01*
X129647147Y-107712180D02*
X129694766Y-107616942D01*
X129694766Y-107616942D02*
X129694766Y-107426466D01*
X129694766Y-107426466D02*
X129647147Y-107331228D01*
X129647147Y-107331228D02*
X129599528Y-107283609D01*
X129599528Y-107283609D02*
X129504290Y-107235990D01*
X141170957Y-106807419D02*
X141170957Y-107616942D01*
X141170957Y-107616942D02*
X141218576Y-107712180D01*
X141218576Y-107712180D02*
X141266195Y-107759800D01*
X141266195Y-107759800D02*
X141361433Y-107807419D01*
X141361433Y-107807419D02*
X141551909Y-107807419D01*
X141551909Y-107807419D02*
X141647147Y-107759800D01*
X141647147Y-107759800D02*
X141694766Y-107712180D01*
X141694766Y-107712180D02*
X141742385Y-107616942D01*
X141742385Y-107616942D02*
X141742385Y-106807419D01*
X142170957Y-106902657D02*
X142218576Y-106855038D01*
X142218576Y-106855038D02*
X142313814Y-106807419D01*
X142313814Y-106807419D02*
X142551909Y-106807419D01*
X142551909Y-106807419D02*
X142647147Y-106855038D01*
X142647147Y-106855038D02*
X142694766Y-106902657D01*
X142694766Y-106902657D02*
X142742385Y-106997895D01*
X142742385Y-106997895D02*
X142742385Y-107093133D01*
X142742385Y-107093133D02*
X142694766Y-107235990D01*
X142694766Y-107235990D02*
X142123338Y-107807419D01*
X142123338Y-107807419D02*
X142742385Y-107807419D01*
X143218576Y-107807419D02*
X143409052Y-107807419D01*
X143409052Y-107807419D02*
X143504290Y-107759800D01*
X143504290Y-107759800D02*
X143551909Y-107712180D01*
X143551909Y-107712180D02*
X143647147Y-107569323D01*
X143647147Y-107569323D02*
X143694766Y-107378847D01*
X143694766Y-107378847D02*
X143694766Y-106997895D01*
X143694766Y-106997895D02*
X143647147Y-106902657D01*
X143647147Y-106902657D02*
X143599528Y-106855038D01*
X143599528Y-106855038D02*
X143504290Y-106807419D01*
X143504290Y-106807419D02*
X143313814Y-106807419D01*
X143313814Y-106807419D02*
X143218576Y-106855038D01*
X143218576Y-106855038D02*
X143170957Y-106902657D01*
X143170957Y-106902657D02*
X143123338Y-106997895D01*
X143123338Y-106997895D02*
X143123338Y-107235990D01*
X143123338Y-107235990D02*
X143170957Y-107331228D01*
X143170957Y-107331228D02*
X143218576Y-107378847D01*
X143218576Y-107378847D02*
X143313814Y-107426466D01*
X143313814Y-107426466D02*
X143504290Y-107426466D01*
X143504290Y-107426466D02*
X143599528Y-107378847D01*
X143599528Y-107378847D02*
X143647147Y-107331228D01*
X143647147Y-107331228D02*
X143694766Y-107235990D01*
X99170957Y-106807419D02*
X99170957Y-107616942D01*
X99170957Y-107616942D02*
X99218576Y-107712180D01*
X99218576Y-107712180D02*
X99266195Y-107759800D01*
X99266195Y-107759800D02*
X99361433Y-107807419D01*
X99361433Y-107807419D02*
X99551909Y-107807419D01*
X99551909Y-107807419D02*
X99647147Y-107759800D01*
X99647147Y-107759800D02*
X99694766Y-107712180D01*
X99694766Y-107712180D02*
X99742385Y-107616942D01*
X99742385Y-107616942D02*
X99742385Y-106807419D01*
X100742385Y-107807419D02*
X100170957Y-107807419D01*
X100456671Y-107807419D02*
X100456671Y-106807419D01*
X100456671Y-106807419D02*
X100361433Y-106950276D01*
X100361433Y-106950276D02*
X100266195Y-107045514D01*
X100266195Y-107045514D02*
X100170957Y-107093133D01*
X101599528Y-107140752D02*
X101599528Y-107807419D01*
X101361433Y-106759800D02*
X101123338Y-107474085D01*
X101123338Y-107474085D02*
X101742385Y-107474085D01*
D12*
%TO.C,U1*%
X94250000Y-63750000D02*
X94550000Y-63750000D01*
X94250000Y-63750000D02*
X94250000Y-42750000D01*
X96650000Y-63750000D02*
X97050000Y-63750000D01*
X96917000Y-63750000D02*
X96917000Y-60743000D01*
X99250000Y-63750000D02*
X99650000Y-63750000D01*
X101750000Y-63750000D02*
X102150000Y-63750000D01*
X104350000Y-63750000D02*
X104750000Y-63750000D01*
X106850000Y-63750000D02*
X107250000Y-63750000D01*
X109350000Y-63750000D02*
X109750000Y-63750000D01*
X111950000Y-63750000D02*
X112350000Y-63750000D01*
X114450000Y-63750000D02*
X114850000Y-63750000D01*
X117050000Y-63750000D02*
X117450000Y-63750000D01*
X119550000Y-63750000D02*
X119950000Y-63750000D01*
X122050000Y-63750000D02*
X122450000Y-63750000D01*
X124650000Y-63750000D02*
X125050000Y-63750000D01*
X127150000Y-63750000D02*
X127550000Y-63750000D01*
X129750000Y-63750000D02*
X130150000Y-63750000D01*
X132250000Y-63750000D02*
X132650000Y-63750000D01*
X134850000Y-63750000D02*
X135250000Y-63750000D01*
X137350000Y-63750000D02*
X137750000Y-63750000D01*
X139850000Y-63750000D02*
X140250000Y-63750000D01*
X142450000Y-63750000D02*
X142850000Y-63750000D01*
X96917000Y-60743000D02*
X94250000Y-60743000D01*
X145250000Y-56950000D02*
X145250000Y-63750000D01*
X145250000Y-54750000D02*
X145250000Y-54350000D01*
X145250000Y-52150000D02*
X145250000Y-51750000D01*
X94250000Y-42750000D02*
X94550000Y-42750000D01*
X96650000Y-42750000D02*
X97050000Y-42750000D01*
X99250000Y-42750000D02*
X99650000Y-42750000D01*
X101750000Y-42750000D02*
X102150000Y-42750000D01*
X104350000Y-42750000D02*
X104750000Y-42750000D01*
X106850000Y-42750000D02*
X107250000Y-42750000D01*
X109350000Y-42750000D02*
X109750000Y-42750000D01*
X111950000Y-42750000D02*
X112350000Y-42750000D01*
X114450000Y-42750000D02*
X114850000Y-42750000D01*
X117050000Y-42750000D02*
X117450000Y-42750000D01*
X119550000Y-42750000D02*
X119950000Y-42750000D01*
X122050000Y-42750000D02*
X122450000Y-42750000D01*
X124650000Y-42750000D02*
X125050000Y-42750000D01*
X127150000Y-42750000D02*
X127550000Y-42750000D01*
X129750000Y-42750000D02*
X130150000Y-42750000D01*
X132250000Y-42750000D02*
X132650000Y-42750000D01*
X134850000Y-42750000D02*
X135250000Y-42750000D01*
X137350000Y-42750000D02*
X137750000Y-42750000D01*
X139850000Y-42750000D02*
X140250000Y-42750000D01*
X142450000Y-42750000D02*
X142850000Y-42750000D01*
X145250000Y-42750000D02*
X145250000Y-49550000D01*
%TO.C,Brd1*%
X150300000Y-42550000D02*
X177700000Y-42550000D01*
X150300000Y-69850000D02*
X150300000Y-42550000D01*
X150722000Y-45845000D02*
X173822000Y-45845000D01*
X150722000Y-62445000D02*
X150722000Y-45845000D01*
X159001000Y-43039000D02*
X159001000Y-45452000D01*
X159001000Y-43039000D02*
X168780000Y-43039000D01*
X168780000Y-43039000D02*
X168780000Y-45452000D01*
X168780000Y-45452000D02*
X159001000Y-45452000D01*
X173822000Y-45845000D02*
X176908000Y-45845000D01*
X173822000Y-62445000D02*
X150722000Y-62445000D01*
X173822000Y-62445000D02*
X177162000Y-62470000D01*
X177162000Y-45833000D02*
X176908000Y-45845000D01*
X177162000Y-62470000D02*
X177162000Y-45833000D01*
X177700000Y-42550000D02*
X177700000Y-69850000D01*
X177700000Y-69850000D02*
X150300000Y-69850000D01*
%TD*%
M02*
