%TF.GenerationSoftware,KiCad,Pcbnew,7.0.9*%
%TF.CreationDate,2024-09-03T11:05:06+09:00*%
%TF.ProjectId,_________,d5eac3af-adfc-4dcf-9cc9-2e6b69636164,rev?*%
%TF.SameCoordinates,Original*%
%TF.FileFunction,Soldermask,Top*%
%TF.FilePolarity,Negative*%
%FSLAX46Y46*%
G04 Gerber Fmt 4.6, Leading zero omitted, Abs format (unit mm)*
G04 Created by KiCad (PCBNEW 7.0.9) date 2024-09-03 11:05:06*
%MOMM*%
%LPD*%
G01*
G04 APERTURE LIST*
%ADD10R,13.000000X13.000000*%
%ADD11O,1.800000X1.800000*%
%ADD12O,1.500000X1.500000*%
%ADD13O,1.700000X1.700000*%
%ADD14R,1.700000X3.500000*%
%ADD15R,1.700000X1.700000*%
%ADD16R,3.500000X1.700000*%
%ADD17O,1.600000X2.000000*%
G04 APERTURE END LIST*
D10*
%TO.C,U36*%
X156209052Y-133450000D03*
%TD*%
%TO.C,U30*%
X156209052Y-119450000D03*
%TD*%
%TO.C,U47*%
X128259052Y-77450000D03*
%TD*%
%TO.C,U37*%
X142209052Y-133450000D03*
%TD*%
%TO.C,U23*%
X142209052Y-91450000D03*
%TD*%
%TO.C,U22*%
X128209052Y-91450000D03*
%TD*%
%TO.C,U21*%
X114209052Y-91450000D03*
%TD*%
%TO.C,U13*%
X156209052Y-105450000D03*
%TD*%
%TO.C,U20*%
X100209052Y-91450000D03*
%TD*%
%TO.C,U38*%
X128209052Y-133450000D03*
%TD*%
D11*
%TO.C,U1*%
X95750000Y-55975000D03*
D12*
X98780000Y-55675000D03*
X98780000Y-50825000D03*
D11*
X95750000Y-50525000D03*
D13*
X95620000Y-62140000D03*
D14*
X95620000Y-63040000D03*
D13*
X98160000Y-62140000D03*
D14*
X98160000Y-63040000D03*
D15*
X100700000Y-62140000D03*
D14*
X100700000Y-63040000D03*
D13*
X103240000Y-62140000D03*
D14*
X103240000Y-63040000D03*
D13*
X105780000Y-62140000D03*
D14*
X105780000Y-63040000D03*
D13*
X108320000Y-62140000D03*
D14*
X108320000Y-63040000D03*
D13*
X110860000Y-62140000D03*
D14*
X110860000Y-63040000D03*
D15*
X113400000Y-62140000D03*
D14*
X113400000Y-63040000D03*
D13*
X115940000Y-62140000D03*
D14*
X115940000Y-63040000D03*
D13*
X118480000Y-62140000D03*
D14*
X118480000Y-63040000D03*
D13*
X121020000Y-62140000D03*
D14*
X121020000Y-63040000D03*
D13*
X123560000Y-62140000D03*
D14*
X123560000Y-63040000D03*
D15*
X126100000Y-62140000D03*
D14*
X126100000Y-63040000D03*
D13*
X128640000Y-62140000D03*
D14*
X128640000Y-63040000D03*
D13*
X131180000Y-62140000D03*
D14*
X131180000Y-63040000D03*
D13*
X133720000Y-62140000D03*
D14*
X133720000Y-63040000D03*
D13*
X136260000Y-62140000D03*
D14*
X136260000Y-63040000D03*
D15*
X138800000Y-62140000D03*
D14*
X138800000Y-63040000D03*
D13*
X141340000Y-62140000D03*
D14*
X141340000Y-63040000D03*
D13*
X143880000Y-62140000D03*
D14*
X143880000Y-63040000D03*
D13*
X143880000Y-44360000D03*
D14*
X143880000Y-43460000D03*
D13*
X141340000Y-44360000D03*
D14*
X141340000Y-43460000D03*
D15*
X138800000Y-44360000D03*
D14*
X138800000Y-43460000D03*
D13*
X136260000Y-44360000D03*
D14*
X136260000Y-43460000D03*
D13*
X133720000Y-44360000D03*
D14*
X133720000Y-43460000D03*
D13*
X131180000Y-44360000D03*
D14*
X131180000Y-43460000D03*
D13*
X128640000Y-44360000D03*
D14*
X128640000Y-43460000D03*
D15*
X126100000Y-44360000D03*
D14*
X126100000Y-43460000D03*
D13*
X123560000Y-44360000D03*
D14*
X123560000Y-43460000D03*
D13*
X121020000Y-44360000D03*
D14*
X121020000Y-43460000D03*
D13*
X118480000Y-44360000D03*
D14*
X118480000Y-43460000D03*
D13*
X115940000Y-44360000D03*
D14*
X115940000Y-43460000D03*
D15*
X113400000Y-44360000D03*
D14*
X113400000Y-43460000D03*
D13*
X110860000Y-44360000D03*
D14*
X110860000Y-43460000D03*
D13*
X108320000Y-44360000D03*
D14*
X108320000Y-43460000D03*
D13*
X105780000Y-44360000D03*
D14*
X105780000Y-43460000D03*
D13*
X103240000Y-44360000D03*
D14*
X103240000Y-43460000D03*
D15*
X100700000Y-44360000D03*
D14*
X100700000Y-43460000D03*
D13*
X98160000Y-44360000D03*
D14*
X98160000Y-43460000D03*
D13*
X95620000Y-44360000D03*
D14*
X95620000Y-43460000D03*
D13*
X143650000Y-55790000D03*
D16*
X144550000Y-55790000D03*
D15*
X143650000Y-53250000D03*
D16*
X144550000Y-53250000D03*
D13*
X143650000Y-50710000D03*
D16*
X144550000Y-50710000D03*
%TD*%
D10*
%TO.C,U46*%
X114259052Y-77500000D03*
%TD*%
D17*
%TO.C,Brd1*%
X160080000Y-44250000D03*
X162620000Y-44250000D03*
X165160000Y-44250000D03*
X167700000Y-44250000D03*
%TD*%
D10*
%TO.C,U12*%
X142209052Y-105450000D03*
%TD*%
%TO.C,U31*%
X100259052Y-133500000D03*
%TD*%
%TO.C,U40*%
X114209052Y-133450000D03*
%TD*%
%TO.C,U43*%
X156209052Y-91450000D03*
%TD*%
%TO.C,U3*%
X100209052Y-105450000D03*
%TD*%
%TO.C,U48*%
X142209052Y-77450000D03*
%TD*%
%TO.C,U7*%
X128209052Y-105450000D03*
%TD*%
%TO.C,U6*%
X114209052Y-105450000D03*
%TD*%
%TO.C,U15*%
X114209052Y-119450000D03*
%TD*%
%TO.C,U28*%
X128209052Y-119450000D03*
%TD*%
%TO.C,U29*%
X142209052Y-119450000D03*
%TD*%
%TO.C,U14*%
X100209052Y-119450000D03*
%TD*%
M02*
