%TF.GenerationSoftware,KiCad,Pcbnew,7.0.9*%
%TF.CreationDate,2024-09-03T11:05:06+09:00*%
%TF.ProjectId,_________,d5eac3af-adfc-4dcf-9cc9-2e6b69636164,rev?*%
%TF.SameCoordinates,Original*%
%TF.FileFunction,Copper,L1,Top*%
%TF.FilePolarity,Positive*%
%FSLAX46Y46*%
G04 Gerber Fmt 4.6, Leading zero omitted, Abs format (unit mm)*
G04 Created by KiCad (PCBNEW 7.0.9) date 2024-09-03 11:05:06*
%MOMM*%
%LPD*%
G01*
G04 APERTURE LIST*
%TA.AperFunction,SMDPad,CuDef*%
%ADD10R,13.000000X13.000000*%
%TD*%
%TA.AperFunction,ComponentPad*%
%ADD11O,1.700000X1.700000*%
%TD*%
%TA.AperFunction,SMDPad,CuDef*%
%ADD12R,1.700000X3.500000*%
%TD*%
%TA.AperFunction,ComponentPad*%
%ADD13R,1.700000X1.700000*%
%TD*%
%TA.AperFunction,SMDPad,CuDef*%
%ADD14R,3.500000X1.700000*%
%TD*%
%TA.AperFunction,ComponentPad*%
%ADD15O,1.600000X2.000000*%
%TD*%
%TA.AperFunction,ViaPad*%
%ADD16C,0.800000*%
%TD*%
%TA.AperFunction,Conductor*%
%ADD17C,0.250000*%
%TD*%
G04 APERTURE END LIST*
D10*
%TO.P,U36,1,1*%
%TO.N,Net-(U32-I)*%
X156209052Y-133450000D03*
%TD*%
%TO.P,U30,1,1*%
%TO.N,Net-(U26-I)*%
X156209052Y-119450000D03*
%TD*%
%TO.P,U47,1,1*%
%TO.N,Net-(U42-I)*%
X128259052Y-77450000D03*
%TD*%
%TO.P,U37,1,1*%
%TO.N,Net-(U33-I)*%
X142209052Y-133450000D03*
%TD*%
%TO.P,U23,1,1*%
%TO.N,Net-(U19-I)*%
X142209052Y-91450000D03*
%TD*%
%TO.P,U22,1,1*%
%TO.N,Net-(U18-I)*%
X128209052Y-91450000D03*
%TD*%
%TO.P,U21,1,1*%
%TO.N,Net-(U17-I)*%
X114209052Y-91450000D03*
%TD*%
%TO.P,U13,1,1*%
%TO.N,Net-(U9-I)*%
X156209052Y-105450000D03*
%TD*%
%TO.P,U20,1,1*%
%TO.N,Net-(U16-I)*%
X100209052Y-91450000D03*
%TD*%
%TO.P,U38,1,1*%
%TO.N,Net-(U34-I)*%
X128209052Y-133450000D03*
%TD*%
D11*
%TO.P,U1,1,GP0*%
%TO.N,1*%
X95620000Y-62140000D03*
D12*
X95620000Y-63040000D03*
D11*
%TO.P,U1,2,GP1*%
%TO.N,2*%
X98160000Y-62140000D03*
D12*
X98160000Y-63040000D03*
D13*
%TO.P,U1,3,GND*%
%TO.N,GND*%
X100700000Y-62140000D03*
D12*
X100700000Y-63040000D03*
D11*
%TO.P,U1,4,GP2*%
%TO.N,3*%
X103240000Y-62140000D03*
D12*
X103240000Y-63040000D03*
D11*
%TO.P,U1,5,GP3*%
%TO.N,4*%
X105780000Y-62140000D03*
D12*
X105780000Y-63040000D03*
D11*
%TO.P,U1,6,GP4*%
%TO.N,5*%
X108320000Y-62140000D03*
D12*
X108320000Y-63040000D03*
D11*
%TO.P,U1,7,GP5*%
%TO.N,6*%
X110860000Y-62140000D03*
D12*
X110860000Y-63040000D03*
D13*
%TO.P,U1,8,GND*%
%TO.N,GND*%
X113400000Y-62140000D03*
D12*
X113400000Y-63040000D03*
D11*
%TO.P,U1,9,GP6*%
%TO.N,7*%
X115940000Y-62140000D03*
D12*
X115940000Y-63040000D03*
D11*
%TO.P,U1,10,GP7*%
%TO.N,8*%
X118480000Y-62140000D03*
D12*
X118480000Y-63040000D03*
D11*
%TO.P,U1,11,GP8*%
%TO.N,9*%
X121020000Y-62140000D03*
D12*
X121020000Y-63040000D03*
D11*
%TO.P,U1,12,GP9*%
%TO.N,10*%
X123560000Y-62140000D03*
D12*
X123560000Y-63040000D03*
D13*
%TO.P,U1,13,GND*%
%TO.N,11*%
X126100000Y-62140000D03*
D12*
X126100000Y-63040000D03*
D11*
%TO.P,U1,14,GP10*%
%TO.N,12*%
X128640000Y-62140000D03*
D12*
X128640000Y-63040000D03*
D11*
%TO.P,U1,15,GP11*%
%TO.N,13*%
X131180000Y-62140000D03*
D12*
X131180000Y-63040000D03*
D11*
%TO.P,U1,16,GP12*%
%TO.N,14*%
X133720000Y-62140000D03*
D12*
X133720000Y-63040000D03*
D11*
%TO.P,U1,17,GP13*%
%TO.N,15*%
X136260000Y-62140000D03*
D12*
X136260000Y-63040000D03*
D13*
%TO.P,U1,18,GND*%
%TO.N,unconnected-(U1-GND-Pad18)*%
X138800000Y-62140000D03*
D12*
X138800000Y-63040000D03*
D11*
%TO.P,U1,19,GP14*%
%TO.N,16*%
X141340000Y-62140000D03*
D12*
X141340000Y-63040000D03*
D11*
%TO.P,U1,20,GP15*%
%TO.N,17*%
X143880000Y-62140000D03*
D12*
X143880000Y-63040000D03*
D11*
%TO.P,U1,21,GP16*%
%TO.N,Net-(Brd1-SDA)*%
X143880000Y-44360000D03*
D12*
X143880000Y-43460000D03*
D11*
%TO.P,U1,22,GP17*%
%TO.N,Net-(Brd1-SCL)*%
X141340000Y-44360000D03*
D12*
X141340000Y-43460000D03*
D13*
%TO.P,U1,23,GND*%
%TO.N,unconnected-(U1-GND-Pad23)*%
X138800000Y-44360000D03*
D12*
X138800000Y-43460000D03*
D11*
%TO.P,U1,24,GP18*%
%TO.N,unconnected-(U1-GP18-Pad24)*%
X136260000Y-44360000D03*
D12*
X136260000Y-43460000D03*
D11*
%TO.P,U1,25,GP19*%
%TO.N,unconnected-(U1-GP19-Pad25)*%
X133720000Y-44360000D03*
D12*
X133720000Y-43460000D03*
D11*
%TO.P,U1,26,GP20*%
%TO.N,23*%
X131180000Y-44360000D03*
D12*
X131180000Y-43460000D03*
D11*
%TO.P,U1,27,GP21*%
%TO.N,22*%
X128640000Y-44360000D03*
D12*
X128640000Y-43460000D03*
D13*
%TO.P,U1,28,GND*%
%TO.N,unconnected-(U1-GND-Pad28)*%
X126100000Y-44360000D03*
D12*
X126100000Y-43460000D03*
D11*
%TO.P,U1,29,GP22*%
%TO.N,21*%
X123560000Y-44360000D03*
D12*
X123560000Y-43460000D03*
D11*
%TO.P,U1,30,RUN*%
%TO.N,unconnected-(U1-RUN-Pad30)*%
X121020000Y-44360000D03*
D12*
X121020000Y-43460000D03*
D11*
%TO.P,U1,31,GP26*%
%TO.N,20*%
X118480000Y-44360000D03*
D12*
X118480000Y-43460000D03*
D11*
%TO.P,U1,32,GP27*%
%TO.N,19*%
X115940000Y-44360000D03*
D12*
X115940000Y-43460000D03*
D13*
%TO.P,U1,33,GND*%
%TO.N,GND*%
X113400000Y-44360000D03*
D12*
X113400000Y-43460000D03*
D11*
%TO.P,U1,34,GP28*%
%TO.N,18*%
X110860000Y-44360000D03*
D12*
X110860000Y-43460000D03*
D11*
%TO.P,U1,35,ADC_VREF*%
%TO.N,unconnected-(U1-ADC_VREF-Pad35)*%
X108320000Y-44360000D03*
D12*
X108320000Y-43460000D03*
D11*
%TO.P,U1,36,3V3(OUT)*%
%TO.N,+3.3*%
X105780000Y-44360000D03*
D12*
X105780000Y-43460000D03*
D11*
%TO.P,U1,37,3V3_EN*%
%TO.N,unconnected-(U1-3V3_EN-Pad37)*%
X103240000Y-44360000D03*
D12*
X103240000Y-43460000D03*
D13*
%TO.P,U1,38,GND*%
%TO.N,GND*%
X100700000Y-44360000D03*
D12*
X100700000Y-43460000D03*
D11*
%TO.P,U1,39,VSYS*%
%TO.N,unconnected-(U1-VSYS-Pad39)*%
X98160000Y-44360000D03*
D12*
X98160000Y-43460000D03*
D11*
%TO.P,U1,40,VBUS*%
%TO.N,unconnected-(U1-VBUS-Pad40)*%
X95620000Y-44360000D03*
D12*
X95620000Y-43460000D03*
D11*
%TO.P,U1,41*%
%TO.N,N/C*%
X143650000Y-55790000D03*
D14*
X144550000Y-55790000D03*
D13*
%TO.P,U1,42*%
X143650000Y-53250000D03*
D14*
X144550000Y-53250000D03*
D11*
%TO.P,U1,43*%
X143650000Y-50710000D03*
D14*
X144550000Y-50710000D03*
%TD*%
D10*
%TO.P,U46,1,1*%
%TO.N,Net-(U41-I)*%
X114259052Y-77500000D03*
%TD*%
D15*
%TO.P,Brd1,1,GND*%
%TO.N,GND*%
X160080000Y-44250000D03*
%TO.P,Brd1,2,VCC*%
%TO.N,+3.3*%
X162620000Y-44250000D03*
%TO.P,Brd1,3,SCL*%
%TO.N,Net-(Brd1-SCL)*%
X165160000Y-44250000D03*
%TO.P,Brd1,4,SDA*%
%TO.N,Net-(Brd1-SDA)*%
X167700000Y-44250000D03*
%TD*%
D10*
%TO.P,U12,1,1*%
%TO.N,Net-(U8-I)*%
X142209052Y-105450000D03*
%TD*%
%TO.P,U31,1,1*%
%TO.N,Net-(U27-I)*%
X100259052Y-133500000D03*
%TD*%
%TO.P,U40,1,1*%
%TO.N,Net-(U35-I)*%
X114209052Y-133450000D03*
%TD*%
%TO.P,U43,1,1*%
%TO.N,Net-(U39-I)*%
X156209052Y-91450000D03*
%TD*%
%TO.P,U3,1,1*%
%TO.N,Net-(U2-I)*%
X100209052Y-105450000D03*
%TD*%
%TO.P,U48,1,1*%
%TO.N,Net-(U44-I)*%
X142209052Y-77450000D03*
%TD*%
%TO.P,U7,1,1*%
%TO.N,Net-(U5-I)*%
X128209052Y-105450000D03*
%TD*%
%TO.P,U6,1,1*%
%TO.N,Net-(U4-I)*%
X114209052Y-105450000D03*
%TD*%
%TO.P,U15,1,1*%
%TO.N,Net-(U11-I)*%
X114209052Y-119450000D03*
%TD*%
%TO.P,U28,1,1*%
%TO.N,Net-(U24-I)*%
X128209052Y-119450000D03*
%TD*%
%TO.P,U29,1,1*%
%TO.N,Net-(U25-I)*%
X142209052Y-119450000D03*
%TD*%
%TO.P,U14,1,1*%
%TO.N,Net-(U10-I)*%
X100209052Y-119450000D03*
%TD*%
D16*
%TO.N,16*%
X108750000Y-140750000D03*
X165500000Y-140500000D03*
%TO.N,GND*%
X163500000Y-132000000D03*
X165750000Y-137000000D03*
%TO.N,18*%
X111000000Y-47000000D03*
X119695576Y-46168363D03*
%TO.N,19*%
X116250000Y-48500000D03*
X120250000Y-47000000D03*
%TO.N,+3.3*%
X162750000Y-48000000D03*
%TO.N,23*%
X145250000Y-59250000D03*
X142000000Y-49000000D03*
X137250000Y-49000000D03*
X145250000Y-68250000D03*
%TO.N,GND*%
X122625000Y-69875000D03*
X141750000Y-69250000D03*
X114500000Y-69500000D03*
%TO.N,22*%
X122500000Y-52500000D03*
X122250000Y-59000000D03*
X122250000Y-65750000D03*
X121500000Y-70250000D03*
%TO.N,3*%
X134525500Y-70000000D03*
X131750000Y-68724500D03*
%TO.N,8*%
X135250000Y-67899000D03*
X135250000Y-98500000D03*
%TO.N,13*%
X131250000Y-67174500D03*
X163964281Y-86285719D03*
X164651000Y-88750000D03*
X164750000Y-102750000D03*
X165250000Y-99250000D03*
X166250000Y-110250000D03*
X166725500Y-118750000D03*
X166275500Y-111750000D03*
X135250000Y-112500000D03*
%TO.N,GND*%
X98750000Y-84250000D03*
X89465586Y-110626580D03*
X92750000Y-110579526D03*
%TO.N,+3.3*%
X169750000Y-84000000D03*
X93000000Y-102750000D03*
X92750000Y-99250000D03*
%TO.N,Net-(U2-I)*%
X100209052Y-105950000D03*
%TO.N,Net-(U4-I)*%
X113959052Y-105950000D03*
%TO.N,Net-(U5-I)*%
X127709052Y-105950000D03*
%TO.N,Net-(U8-I)*%
X142709052Y-104200000D03*
%TO.N,Net-(U9-I)*%
X155209052Y-104950000D03*
%TO.N,Net-(U10-I)*%
X100209052Y-119450000D03*
%TO.N,Net-(U11-I)*%
X113959052Y-119700000D03*
%TO.N,Net-(U16-I)*%
X99459052Y-91450000D03*
%TO.N,Net-(U17-I)*%
X113959052Y-91450000D03*
%TO.N,Net-(U18-I)*%
X127959052Y-91200000D03*
%TO.N,Net-(U19-I)*%
X141709052Y-91200000D03*
%TO.N,Net-(U24-I)*%
X127459052Y-119450000D03*
%TO.N,Net-(U25-I)*%
X141959052Y-119450000D03*
%TO.N,Net-(U26-I)*%
X155459052Y-119450000D03*
%TO.N,Net-(U27-I)*%
X99959052Y-133700000D03*
%TO.N,Net-(U32-I)*%
X155459052Y-133450000D03*
%TO.N,Net-(U33-I)*%
X141709052Y-132700000D03*
%TO.N,Net-(U34-I)*%
X128209052Y-133450000D03*
%TO.N,Net-(U35-I)*%
X114209052Y-133450000D03*
%TO.N,Net-(U41-I)*%
X113459052Y-77517281D03*
%TO.N,Net-(U42-I)*%
X126959052Y-77200000D03*
%TO.N,Net-(U44-I)*%
X141459052Y-77200000D03*
%TO.N,Net-(U39-I)*%
X155709052Y-91200000D03*
%TO.N,1*%
X99500000Y-83250000D03*
X106000000Y-84250000D03*
X98000000Y-83250000D03*
%TO.N,2*%
X121250000Y-84500000D03*
X99500000Y-82250000D03*
X98025500Y-82250000D03*
%TO.N,4*%
X149308554Y-82750000D03*
%TO.N,5*%
X163308554Y-92250000D03*
%TO.N,7*%
X121250000Y-98500000D03*
X109000000Y-60424500D03*
%TO.N,9*%
X121250000Y-112500000D03*
X93250000Y-112500000D03*
%TO.N,11*%
X163308554Y-105250000D03*
X151500000Y-69000000D03*
%TO.N,12*%
X149250000Y-98500000D03*
X164750000Y-87225500D03*
%TO.N,14*%
X166275500Y-104750000D03*
X151250000Y-73500000D03*
X163758552Y-84758552D03*
X165825500Y-102674500D03*
X149250000Y-112500000D03*
X161250000Y-83250000D03*
%TO.N,15*%
X163308554Y-118000000D03*
X152224500Y-70250000D03*
%TO.N,16*%
X168224500Y-126750000D03*
X156137299Y-71862701D03*
X147250000Y-61724500D03*
%TO.N,17*%
X154792698Y-71250000D03*
X167500000Y-125750000D03*
%TO.N,20*%
X165275500Y-131529277D03*
%TO.N,18*%
X166724500Y-126750000D03*
%TO.N,19*%
X166000000Y-125750000D03*
%TD*%
D17*
%TO.N,16*%
X164250000Y-140750000D02*
X108750000Y-140750000D01*
X165500000Y-140500000D02*
X164500000Y-140500000D01*
X164500000Y-140500000D02*
X164250000Y-140750000D01*
%TO.N,+3.3*%
X93750000Y-50000000D02*
X97000000Y-46750000D01*
X103390000Y-46750000D02*
X105780000Y-44360000D01*
X93750000Y-59113604D02*
X93750000Y-50000000D01*
X90750000Y-62113604D02*
X93750000Y-59113604D01*
X90750000Y-99250000D02*
X90750000Y-62113604D01*
X97000000Y-46750000D02*
X103390000Y-46750000D01*
%TO.N,GND*%
X163500000Y-132250000D02*
X163500000Y-132000000D01*
X164500000Y-133250000D02*
X163500000Y-132250000D01*
%TO.N,20*%
X118480000Y-46480000D02*
X118480000Y-44360000D01*
X146500000Y-48000000D02*
X120000000Y-48000000D01*
X147500000Y-49000000D02*
X146500000Y-48000000D01*
X147500000Y-56636396D02*
X147500000Y-49000000D01*
X151500000Y-60636396D02*
X147500000Y-56636396D01*
X151500000Y-67750000D02*
X151500000Y-60636396D01*
X153000000Y-69250000D02*
X151500000Y-67750000D01*
X153000000Y-71755399D02*
X153000000Y-69250000D01*
X155182302Y-73937701D02*
X153000000Y-71755399D01*
X155528513Y-73937701D02*
X155182302Y-73937701D01*
X167450000Y-85859188D02*
X155528513Y-73937701D01*
X167450000Y-122753416D02*
X167450000Y-85859188D01*
X165275500Y-131529277D02*
X165279277Y-131529277D01*
X168000000Y-128808554D02*
X167757749Y-128808554D01*
X165275000Y-124928416D02*
X167450000Y-122753416D01*
X120000000Y-48000000D02*
X118480000Y-46480000D01*
X165279277Y-131529277D02*
X168000000Y-128808554D01*
X165275000Y-126325805D02*
X165275000Y-124928416D01*
X167757749Y-128808554D02*
X165275000Y-126325805D01*
%TO.N,GND*%
X164500000Y-135750000D02*
X164500000Y-133250000D01*
X165750000Y-137000000D02*
X164500000Y-135750000D01*
%TO.N,18*%
X110860000Y-46860000D02*
X110860000Y-44360000D01*
X111000000Y-47000000D02*
X110860000Y-46860000D01*
X119802213Y-46275000D02*
X119695576Y-46168363D01*
X148721991Y-46275000D02*
X119802213Y-46275000D01*
X149393982Y-46946991D02*
X148721991Y-46275000D01*
%TO.N,19*%
X115000000Y-48000000D02*
X115000000Y-45300000D01*
X115500000Y-48500000D02*
X115000000Y-48000000D01*
X115000000Y-45300000D02*
X115940000Y-44360000D01*
X116250000Y-48500000D02*
X115500000Y-48500000D01*
X120750000Y-47500000D02*
X120250000Y-47000000D01*
X139250000Y-47500000D02*
X120750000Y-47500000D01*
X148000000Y-47500000D02*
X139250000Y-47500000D01*
X148500000Y-48000000D02*
X148000000Y-47500000D01*
X148500000Y-57000000D02*
X148500000Y-48000000D01*
X152000000Y-60500000D02*
X148500000Y-57000000D01*
X152000000Y-67500000D02*
X152000000Y-60500000D01*
X153500000Y-69000000D02*
X152000000Y-67500000D01*
X155714909Y-73487701D02*
X155368698Y-73487701D01*
X155368698Y-73487701D02*
X153500000Y-71619003D01*
X153500000Y-71619003D02*
X153500000Y-69000000D01*
X167900000Y-85672792D02*
X155714909Y-73487701D01*
X166274500Y-124565312D02*
X167900000Y-122939812D01*
X166274500Y-125475500D02*
X166274500Y-124565312D01*
X167900000Y-122939812D02*
X167900000Y-85672792D01*
X166000000Y-125750000D02*
X166274500Y-125475500D01*
%TO.N,22*%
X122250000Y-52750000D02*
X122250000Y-59000000D01*
X122500000Y-52500000D02*
X122250000Y-52750000D01*
%TO.N,23*%
X137250000Y-49000000D02*
X142000000Y-49000000D01*
%TO.N,Net-(Brd1-SDA)*%
X166200000Y-42750000D02*
X167700000Y-44250000D01*
X146500000Y-44500000D02*
X154000000Y-44500000D01*
X146360000Y-44360000D02*
X146500000Y-44500000D01*
X154000000Y-44500000D02*
X155750000Y-42750000D01*
X155750000Y-42750000D02*
X166200000Y-42750000D01*
X143880000Y-44360000D02*
X146360000Y-44360000D01*
%TO.N,+3.3*%
X162620000Y-47870000D02*
X162620000Y-44250000D01*
X162750000Y-48000000D02*
X162620000Y-47870000D01*
X92750000Y-99250000D02*
X90750000Y-99250000D01*
X90750000Y-100500000D02*
X90750000Y-99250000D01*
X93000000Y-102750000D02*
X90750000Y-100500000D01*
%TO.N,23*%
X145250000Y-67250000D02*
X145250000Y-68250000D01*
X147500000Y-65000000D02*
X145250000Y-67250000D01*
X147500000Y-63500000D02*
X147500000Y-65000000D01*
X145250000Y-61250000D02*
X147500000Y-63500000D01*
X145250000Y-59250000D02*
X145250000Y-61250000D01*
%TO.N,4*%
X107145000Y-65115000D02*
X105780000Y-63750000D01*
X112035000Y-65115000D02*
X107145000Y-65115000D01*
X112035000Y-60965000D02*
X112035000Y-65115000D01*
X122736701Y-60175000D02*
X112825000Y-60175000D01*
X112825000Y-60175000D02*
X112035000Y-60965000D01*
X148040812Y-58450000D02*
X124461701Y-58450000D01*
X124461701Y-58450000D02*
X122736701Y-60175000D01*
X150250000Y-60659188D02*
X148040812Y-58450000D01*
X105780000Y-63750000D02*
X105780000Y-62140000D01*
X150250000Y-69867108D02*
X150250000Y-60659188D01*
X149308554Y-82750000D02*
X149308554Y-70808554D01*
X149308554Y-70808554D02*
X150250000Y-69867108D01*
%TO.N,5*%
X110735000Y-59725000D02*
X108320000Y-62140000D01*
X148227208Y-58000000D02*
X124275305Y-58000000D01*
X150750000Y-71659188D02*
X150750000Y-60522792D01*
X150750000Y-60522792D02*
X148227208Y-58000000D01*
X124275305Y-58000000D02*
X122550305Y-59725000D01*
X163034052Y-83943240D02*
X150750000Y-71659188D01*
X122550305Y-59725000D02*
X110735000Y-59725000D01*
X163034052Y-91975498D02*
X163034052Y-83943240D01*
X163308554Y-92250000D02*
X163034052Y-91975498D01*
%TO.N,GND*%
X123250000Y-69250000D02*
X122625000Y-69875000D01*
X130199195Y-69250000D02*
X123250000Y-69250000D01*
X131699195Y-67750000D02*
X130199195Y-69250000D01*
X132500000Y-67750000D02*
X131699195Y-67750000D01*
X133250000Y-67000000D02*
X132500000Y-67750000D01*
X137500000Y-69250000D02*
X136750000Y-68500000D01*
X136750000Y-68250000D02*
X135500000Y-67000000D01*
X141750000Y-69250000D02*
X137500000Y-69250000D01*
X136750000Y-68500000D02*
X136750000Y-68250000D01*
X135500000Y-67000000D02*
X133250000Y-67000000D01*
%TO.N,7*%
X108825500Y-60250000D02*
X109000000Y-60424500D01*
X91250000Y-62250000D02*
X93250000Y-60250000D01*
X91250000Y-97000000D02*
X91250000Y-62250000D01*
X93250000Y-60250000D02*
X108825500Y-60250000D01*
X121025000Y-98275000D02*
X92525000Y-98275000D01*
X92525000Y-98275000D02*
X91250000Y-97000000D01*
X121250000Y-98500000D02*
X121025000Y-98275000D01*
%TO.N,14*%
X166100000Y-102400000D02*
X165825500Y-102674500D01*
X163758552Y-85055392D02*
X166100000Y-87396840D01*
X163758552Y-84758552D02*
X163758552Y-85055392D01*
X166100000Y-87396840D02*
X166100000Y-102400000D01*
%TO.N,11*%
X151500000Y-71528191D02*
X151500000Y-69000000D01*
X166550000Y-103450000D02*
X166550000Y-86231980D01*
X166550000Y-86231980D02*
X155155721Y-74837701D01*
X155155721Y-74837701D02*
X154809510Y-74837701D01*
X154809510Y-74837701D02*
X151500000Y-71528191D01*
X165491446Y-104508554D02*
X166550000Y-103450000D01*
X163308554Y-105250000D02*
X164050000Y-104508554D01*
X164050000Y-104508554D02*
X165491446Y-104508554D01*
%TO.N,15*%
X152224500Y-71616295D02*
X152224500Y-70250000D01*
X154995906Y-74387701D02*
X152224500Y-71616295D01*
X167000000Y-86045584D02*
X155342117Y-74387701D01*
X167000000Y-117250000D02*
X167000000Y-86045584D01*
X155342117Y-74387701D02*
X154995906Y-74387701D01*
X166250000Y-118000000D02*
X167000000Y-117250000D01*
X163308554Y-118000000D02*
X166250000Y-118000000D01*
%TO.N,18*%
X154068198Y-51621207D02*
X149393982Y-46946991D01*
X154068198Y-71550805D02*
X154068198Y-51621207D01*
X155555094Y-73037701D02*
X154068198Y-71550805D01*
X168350000Y-85486396D02*
X155901305Y-73037701D01*
X155901305Y-73037701D02*
X155555094Y-73037701D01*
X166724500Y-124751708D02*
X168350000Y-123126208D01*
X168350000Y-123126208D02*
X168350000Y-85486396D01*
X166724500Y-126750000D02*
X166724500Y-124751708D01*
%TO.N,17*%
X156087701Y-72587701D02*
X155836994Y-72587701D01*
X168800000Y-85300000D02*
X156087701Y-72587701D01*
X167774500Y-124338104D02*
X168800000Y-123312604D01*
X167774500Y-125475500D02*
X167774500Y-124338104D01*
X168800000Y-123312604D02*
X168800000Y-85300000D01*
X167500000Y-125750000D02*
X167774500Y-125475500D01*
X155836994Y-72587701D02*
X154792698Y-71543405D01*
X154792698Y-71543405D02*
X154792698Y-71250000D01*
%TO.N,12*%
X165375500Y-98500000D02*
X149250000Y-98500000D01*
X165375500Y-87851000D02*
X165375500Y-98500000D01*
X164750000Y-87225500D02*
X165375500Y-87851000D01*
%TO.N,GND*%
X89512640Y-110579526D02*
X92750000Y-110579526D01*
X89465586Y-110626580D02*
X89512640Y-110579526D01*
X113400000Y-68400000D02*
X113400000Y-62140000D01*
X114500000Y-69500000D02*
X113400000Y-68400000D01*
%TO.N,22*%
X121500000Y-66500000D02*
X122250000Y-65750000D01*
X121500000Y-70250000D02*
X121500000Y-66500000D01*
%TO.N,3*%
X133025500Y-70000000D02*
X131750000Y-68724500D01*
X134525500Y-70000000D02*
X133025500Y-70000000D01*
%TO.N,8*%
X135250000Y-67899000D02*
X135250000Y-98500000D01*
%TO.N,13*%
X131180000Y-67104500D02*
X131180000Y-62140000D01*
X131250000Y-67174500D02*
X131180000Y-67104500D01*
X164651000Y-88750000D02*
X163964281Y-88063281D01*
X164750000Y-99750000D02*
X165250000Y-99250000D01*
X163964281Y-88063281D02*
X163964281Y-86285719D01*
X164750000Y-102750000D02*
X164750000Y-99750000D01*
X166275500Y-110275500D02*
X166250000Y-110250000D01*
X166275500Y-111750000D02*
X166275500Y-110275500D01*
X166725500Y-122774500D02*
X166725500Y-118750000D01*
X135500000Y-126500000D02*
X163000000Y-126500000D01*
X135250000Y-126250000D02*
X135500000Y-126500000D01*
X163000000Y-126500000D02*
X166725500Y-122774500D01*
X135250000Y-112500000D02*
X135250000Y-126250000D01*
%TO.N,GND*%
X98750000Y-68250000D02*
X100700000Y-66300000D01*
X100700000Y-66300000D02*
X100700000Y-62140000D01*
X98750000Y-84250000D02*
X98750000Y-68250000D01*
%TO.N,+3.3*%
X162250000Y-49750000D02*
X169500000Y-49750000D01*
X169500000Y-49750000D02*
X169750000Y-49500000D01*
X106955000Y-45535000D02*
X105780000Y-44360000D01*
X169750000Y-84000000D02*
X169750000Y-49500000D01*
X162250000Y-49750000D02*
X158035000Y-45535000D01*
%TO.N,1*%
X106000000Y-84250000D02*
X100500000Y-84250000D01*
X95620000Y-80870000D02*
X95620000Y-62140000D01*
X100500000Y-84250000D02*
X99500000Y-83250000D01*
X98000000Y-83250000D02*
X95620000Y-80870000D01*
%TO.N,2*%
X121250000Y-84500000D02*
X107250000Y-84500000D01*
X107250000Y-84474695D02*
X105025305Y-82250000D01*
X107250000Y-84500000D02*
X107250000Y-84474695D01*
X97750000Y-81974500D02*
X97750000Y-66000000D01*
X97750000Y-66000000D02*
X98160000Y-65590000D01*
X98025500Y-82250000D02*
X97750000Y-81974500D01*
X98160000Y-65590000D02*
X98160000Y-62140000D01*
X105025305Y-82250000D02*
X99500000Y-82250000D01*
%TO.N,9*%
X121250000Y-112500000D02*
X93250000Y-112500000D01*
%TO.N,14*%
X162809052Y-112500000D02*
X166275500Y-109033552D01*
X149250000Y-112500000D02*
X162809052Y-112500000D01*
X151500000Y-73500000D02*
X151250000Y-73500000D01*
X161250000Y-83250000D02*
X151500000Y-73500000D01*
X166275500Y-109033552D02*
X166275500Y-104750000D01*
%TO.N,16*%
X168224500Y-126750000D02*
X168224500Y-124524500D01*
X147250000Y-61724500D02*
X147224500Y-61724500D01*
X168224500Y-124524500D02*
X169250000Y-123499000D01*
X169250000Y-123499000D02*
X169250000Y-84975402D01*
X169250000Y-84975402D02*
X156137299Y-71862701D01*
%TD*%
M02*
