%TF.GenerationSoftware,KiCad,Pcbnew,7.0.9*%
%TF.CreationDate,2024-09-03T11:05:06+09:00*%
%TF.ProjectId,_________,d5eac3af-adfc-4dcf-9cc9-2e6b69636164,rev?*%
%TF.SameCoordinates,Original*%
%TF.FileFunction,Soldermask,Bot*%
%TF.FilePolarity,Negative*%
%FSLAX46Y46*%
G04 Gerber Fmt 4.6, Leading zero omitted, Abs format (unit mm)*
G04 Created by KiCad (PCBNEW 7.0.9) date 2024-09-03 11:05:06*
%MOMM*%
%LPD*%
G01*
G04 APERTURE LIST*
G04 Aperture macros list*
%AMRoundRect*
0 Rectangle with rounded corners*
0 $1 Rounding radius*
0 $2 $3 $4 $5 $6 $7 $8 $9 X,Y pos of 4 corners*
0 Add a 4 corners polygon primitive as box body*
4,1,4,$2,$3,$4,$5,$6,$7,$8,$9,$2,$3,0*
0 Add four circle primitives for the rounded corners*
1,1,$1+$1,$2,$3*
1,1,$1+$1,$4,$5*
1,1,$1+$1,$6,$7*
1,1,$1+$1,$8,$9*
0 Add four rect primitives between the rounded corners*
20,1,$1+$1,$2,$3,$4,$5,0*
20,1,$1+$1,$4,$5,$6,$7,0*
20,1,$1+$1,$6,$7,$8,$9,0*
20,1,$1+$1,$8,$9,$2,$3,0*%
G04 Aperture macros list end*
%ADD10O,1.800000X1.800000*%
%ADD11O,1.500000X1.500000*%
%ADD12O,1.700000X1.700000*%
%ADD13R,1.700000X1.700000*%
%ADD14O,1.600000X2.000000*%
%ADD15RoundRect,0.102000X0.304800X0.571500X-0.304800X0.571500X-0.304800X-0.571500X0.304800X-0.571500X0*%
%ADD16RoundRect,0.225000X0.250000X-0.225000X0.250000X0.225000X-0.250000X0.225000X-0.250000X-0.225000X0*%
%ADD17RoundRect,0.225000X-0.225000X-0.250000X0.225000X-0.250000X0.225000X0.250000X-0.225000X0.250000X0*%
%ADD18RoundRect,0.102000X-0.304800X-0.571500X0.304800X-0.571500X0.304800X0.571500X-0.304800X0.571500X0*%
%ADD19RoundRect,0.225000X0.225000X0.250000X-0.225000X0.250000X-0.225000X-0.250000X0.225000X-0.250000X0*%
%ADD20RoundRect,0.225000X-0.250000X0.225000X-0.250000X-0.225000X0.250000X-0.225000X0.250000X0.225000X0*%
G04 APERTURE END LIST*
D10*
%TO.C,U1*%
X95750000Y-55975000D03*
D11*
X98780000Y-55675000D03*
X98780000Y-50825000D03*
D10*
X95750000Y-50525000D03*
D12*
X95620000Y-62140000D03*
X98160000Y-62140000D03*
D13*
X100700000Y-62140000D03*
D12*
X103240000Y-62140000D03*
X105780000Y-62140000D03*
X108320000Y-62140000D03*
X110860000Y-62140000D03*
D13*
X113400000Y-62140000D03*
D12*
X115940000Y-62140000D03*
X118480000Y-62140000D03*
X121020000Y-62140000D03*
X123560000Y-62140000D03*
D13*
X126100000Y-62140000D03*
D12*
X128640000Y-62140000D03*
X131180000Y-62140000D03*
X133720000Y-62140000D03*
X136260000Y-62140000D03*
D13*
X138800000Y-62140000D03*
D12*
X141340000Y-62140000D03*
X143880000Y-62140000D03*
X143880000Y-44360000D03*
X141340000Y-44360000D03*
D13*
X138800000Y-44360000D03*
D12*
X136260000Y-44360000D03*
X133720000Y-44360000D03*
X131180000Y-44360000D03*
X128640000Y-44360000D03*
D13*
X126100000Y-44360000D03*
D12*
X123560000Y-44360000D03*
X121020000Y-44360000D03*
X118480000Y-44360000D03*
X115940000Y-44360000D03*
D13*
X113400000Y-44360000D03*
D12*
X110860000Y-44360000D03*
X108320000Y-44360000D03*
X105780000Y-44360000D03*
X103240000Y-44360000D03*
D13*
X100700000Y-44360000D03*
D12*
X98160000Y-44360000D03*
X95620000Y-44360000D03*
X143650000Y-55790000D03*
D13*
X143650000Y-53250000D03*
D12*
X143650000Y-50710000D03*
%TD*%
D14*
%TO.C,Brd1*%
X160080000Y-44250000D03*
X162620000Y-44250000D03*
X165160000Y-44250000D03*
X167700000Y-44250000D03*
%TD*%
D15*
%TO.C,U16*%
X105409052Y-92604000D03*
X104459052Y-92604000D03*
X103509052Y-92604000D03*
X103509052Y-89796000D03*
X104459052Y-89796000D03*
X105409052Y-89796000D03*
%TD*%
D16*
%TO.C,C13*%
X157459052Y-119975000D03*
X157459052Y-118425000D03*
%TD*%
D17*
%TO.C,C57*%
X158934052Y-94950000D03*
X160484052Y-94950000D03*
%TD*%
%TO.C,C4*%
X131209052Y-109200000D03*
X132759052Y-109200000D03*
%TD*%
%TO.C,C26*%
X102684052Y-136950000D03*
X104234052Y-136950000D03*
%TD*%
D15*
%TO.C,U44*%
X147159052Y-78854000D03*
X146209052Y-78854000D03*
X145259052Y-78854000D03*
X145259052Y-76046000D03*
X146209052Y-76046000D03*
X147159052Y-76046000D03*
%TD*%
D18*
%TO.C,U10*%
X99050000Y-118250000D03*
X100000000Y-118250000D03*
X100950000Y-118250000D03*
X100950000Y-121058000D03*
X100000000Y-121058000D03*
X99050000Y-121058000D03*
%TD*%
D17*
%TO.C,C32*%
X144934052Y-136700000D03*
X146484052Y-136700000D03*
%TD*%
D15*
%TO.C,U39*%
X161409052Y-92854000D03*
X160459052Y-92854000D03*
X159509052Y-92854000D03*
X159509052Y-90046000D03*
X160459052Y-90046000D03*
X161409052Y-90046000D03*
%TD*%
%TO.C,U27*%
X105159052Y-134854000D03*
X104209052Y-134854000D03*
X103259052Y-134854000D03*
X103259052Y-132046000D03*
X104209052Y-132046000D03*
X105159052Y-132046000D03*
%TD*%
%TO.C,U4*%
X119409052Y-107104000D03*
X118459052Y-107104000D03*
X117509052Y-107104000D03*
X117509052Y-104296000D03*
X118459052Y-104296000D03*
X119409052Y-104296000D03*
%TD*%
D16*
%TO.C,C37*%
X115959052Y-106475000D03*
X115959052Y-104925000D03*
%TD*%
%TO.C,C5*%
X129959052Y-134000000D03*
X129959052Y-132450000D03*
%TD*%
D17*
%TO.C,C18*%
X145184052Y-94950000D03*
X146734052Y-94950000D03*
%TD*%
D15*
%TO.C,U33*%
X147409052Y-134354000D03*
X146459052Y-134354000D03*
X145509052Y-134354000D03*
X145509052Y-131546000D03*
X146459052Y-131546000D03*
X147409052Y-131546000D03*
%TD*%
%TO.C,U41*%
X118909052Y-79200000D03*
X117959052Y-79200000D03*
X117009052Y-79200000D03*
X117009052Y-76392000D03*
X117959052Y-76392000D03*
X118909052Y-76392000D03*
%TD*%
D16*
%TO.C,C6*%
X157459052Y-133725000D03*
X157459052Y-132175000D03*
%TD*%
D17*
%TO.C,C25*%
X158684052Y-122950000D03*
X160234052Y-122950000D03*
%TD*%
D16*
%TO.C,C36*%
X101959052Y-106475000D03*
X101959052Y-104925000D03*
%TD*%
%TO.C,C11*%
X143459052Y-133475000D03*
X143459052Y-131925000D03*
%TD*%
%TO.C,C21*%
X129709052Y-91750000D03*
X129709052Y-90200000D03*
%TD*%
D15*
%TO.C,U34*%
X133409052Y-134604000D03*
X132459052Y-134604000D03*
X131509052Y-134604000D03*
X131509052Y-131796000D03*
X132459052Y-131796000D03*
X133409052Y-131796000D03*
%TD*%
D17*
%TO.C,C23*%
X130959052Y-122700000D03*
X132509052Y-122700000D03*
%TD*%
%TO.C,C8*%
X158934052Y-108700000D03*
X160484052Y-108700000D03*
%TD*%
D15*
%TO.C,U26*%
X161159052Y-120604000D03*
X160209052Y-120604000D03*
X159259052Y-120604000D03*
X159259052Y-117796000D03*
X160209052Y-117796000D03*
X161159052Y-117796000D03*
%TD*%
D16*
%TO.C,C22*%
X144709052Y-104725000D03*
X144709052Y-103175000D03*
%TD*%
D19*
%TO.C,C9*%
X101275000Y-116337500D03*
X99725000Y-116337500D03*
%TD*%
D17*
%TO.C,C7*%
X145659052Y-107200000D03*
X147209052Y-107200000D03*
%TD*%
D15*
%TO.C,U35*%
X119409052Y-134604000D03*
X118459052Y-134604000D03*
X117509052Y-134604000D03*
X117509052Y-131796000D03*
X118459052Y-131796000D03*
X119409052Y-131796000D03*
%TD*%
D17*
%TO.C,C16*%
X117184052Y-94700000D03*
X118734052Y-94700000D03*
%TD*%
D15*
%TO.C,U25*%
X147159052Y-120604000D03*
X146209052Y-120604000D03*
X145259052Y-120604000D03*
X145259052Y-117796000D03*
X146209052Y-117796000D03*
X147159052Y-117796000D03*
%TD*%
D17*
%TO.C,C31*%
X158684052Y-136200000D03*
X160234052Y-136200000D03*
%TD*%
D15*
%TO.C,U9*%
X161159052Y-106604000D03*
X160209052Y-106604000D03*
X159259052Y-106604000D03*
X159259052Y-103796000D03*
X160209052Y-103796000D03*
X161159052Y-103796000D03*
%TD*%
%TO.C,U24*%
X133109052Y-120508000D03*
X132159052Y-120508000D03*
X131209052Y-120508000D03*
X131209052Y-117700000D03*
X132159052Y-117700000D03*
X133109052Y-117700000D03*
%TD*%
%TO.C,U42*%
X132909052Y-78604000D03*
X131959052Y-78604000D03*
X131009052Y-78604000D03*
X131009052Y-75796000D03*
X131959052Y-75796000D03*
X132909052Y-75796000D03*
%TD*%
D16*
%TO.C,C14*%
X143459052Y-119975000D03*
X143459052Y-118425000D03*
%TD*%
D17*
%TO.C,C41*%
X144709052Y-80950000D03*
X146259052Y-80950000D03*
%TD*%
D16*
%TO.C,C45*%
X129459052Y-77950000D03*
X129459052Y-76400000D03*
%TD*%
D17*
%TO.C,C40*%
X130209052Y-80700000D03*
X131759052Y-80700000D03*
%TD*%
D20*
%TO.C,C28*%
X102500000Y-118812500D03*
X102500000Y-120362500D03*
%TD*%
D16*
%TO.C,C19*%
X101459052Y-91975000D03*
X101459052Y-90425000D03*
%TD*%
D15*
%TO.C,U18*%
X133409052Y-92604000D03*
X132459052Y-92604000D03*
X131509052Y-92604000D03*
X131509052Y-89796000D03*
X132459052Y-89796000D03*
X133409052Y-89796000D03*
%TD*%
D16*
%TO.C,C27*%
X157209052Y-105725000D03*
X157209052Y-104175000D03*
%TD*%
D15*
%TO.C,U11*%
X119159052Y-120854000D03*
X118209052Y-120854000D03*
X117259052Y-120854000D03*
X117259052Y-118046000D03*
X118209052Y-118046000D03*
X119159052Y-118046000D03*
%TD*%
D17*
%TO.C,C10*%
X116934052Y-122950000D03*
X118484052Y-122950000D03*
%TD*%
%TO.C,C17*%
X130934052Y-94700000D03*
X132484052Y-94700000D03*
%TD*%
D15*
%TO.C,U5*%
X133409052Y-107104000D03*
X132459052Y-107104000D03*
X131509052Y-107104000D03*
X131509052Y-104296000D03*
X132459052Y-104296000D03*
X133409052Y-104296000D03*
%TD*%
D17*
%TO.C,C1*%
X102934052Y-109200000D03*
X104484052Y-109200000D03*
%TD*%
%TO.C,C34*%
X116909052Y-136950000D03*
X118459052Y-136950000D03*
%TD*%
D15*
%TO.C,U8*%
X147909052Y-105104000D03*
X146959052Y-105104000D03*
X146009052Y-105104000D03*
X146009052Y-102296000D03*
X146959052Y-102296000D03*
X147909052Y-102296000D03*
%TD*%
D16*
%TO.C,C43*%
X157709052Y-92000000D03*
X157709052Y-90450000D03*
%TD*%
D17*
%TO.C,C39*%
X116709052Y-81200000D03*
X118259052Y-81200000D03*
%TD*%
D15*
%TO.C,U2*%
X105409052Y-107104000D03*
X104459052Y-107104000D03*
X103509052Y-107104000D03*
X103509052Y-104296000D03*
X104459052Y-104296000D03*
X105409052Y-104296000D03*
%TD*%
%TO.C,U32*%
X161159052Y-134354000D03*
X160209052Y-134354000D03*
X159259052Y-134354000D03*
X159259052Y-131546000D03*
X160209052Y-131546000D03*
X161159052Y-131546000D03*
%TD*%
D16*
%TO.C,C20*%
X115709052Y-92225000D03*
X115709052Y-90675000D03*
%TD*%
%TO.C,C12*%
X101459052Y-134225000D03*
X101459052Y-132675000D03*
%TD*%
D17*
%TO.C,C3*%
X117159052Y-109200000D03*
X118709052Y-109200000D03*
%TD*%
D16*
%TO.C,C30*%
X129459052Y-119975000D03*
X129459052Y-118425000D03*
%TD*%
D17*
%TO.C,C33*%
X130934052Y-136450000D03*
X132484052Y-136450000D03*
%TD*%
D16*
%TO.C,C35*%
X143709052Y-91725000D03*
X143709052Y-90175000D03*
%TD*%
%TO.C,C38*%
X129959052Y-106475000D03*
X129959052Y-104925000D03*
%TD*%
D17*
%TO.C,C15*%
X103184052Y-94700000D03*
X104734052Y-94700000D03*
%TD*%
D16*
%TO.C,C44*%
X115209052Y-78475000D03*
X115209052Y-76925000D03*
%TD*%
%TO.C,C53*%
X143209052Y-77975000D03*
X143209052Y-76425000D03*
%TD*%
D15*
%TO.C,U19*%
X147459052Y-92758000D03*
X146509052Y-92758000D03*
X145559052Y-92758000D03*
X145559052Y-89950000D03*
X146509052Y-89950000D03*
X147459052Y-89950000D03*
%TD*%
D16*
%TO.C,C2*%
X115959052Y-133975000D03*
X115959052Y-132425000D03*
%TD*%
%TO.C,C29*%
X115709052Y-120225000D03*
X115709052Y-118675000D03*
%TD*%
D15*
%TO.C,U17*%
X119409052Y-92758000D03*
X118459052Y-92758000D03*
X117509052Y-92758000D03*
X117509052Y-89950000D03*
X118459052Y-89950000D03*
X119409052Y-89950000D03*
%TD*%
D17*
%TO.C,C24*%
X144684052Y-122700000D03*
X146234052Y-122700000D03*
%TD*%
M02*
